<svg width="316" height="68" viewBox="0 0 316 68" fill="none" xmlns="http://www.w3.org/2000/svg">
<mask id="path-1-outside-1_20_5" maskUnits="userSpaceOnUse" x="0" y="0" width="316" height="68" fill="black">
<rect fill="white" width="316" height="68"/>
<path d="M41.5842 45.3372C41.5842 47.7054 41.0689 49.7461 40.0385 51.4593C39.0548 53.1221 37.4154 54.6589 35.1203 56.0698C33.5746 57.0775 31.7712 57.8333 29.7103 58.3372C27.6493 58.8411 25.565 59.093 23.4572 59.093C21.3025 59.093 18.6326 58.3372 15.4475 56.8256C13.1524 55.6163 11.3256 54.1802 9.96727 52.5174C8.65576 50.8547 8 49.0407 8 47.0756C8 45.7151 8.28104 44.7326 8.84312 44.1279C9.4052 43.4729 10.3186 43.1454 11.5832 43.1454C12.239 43.1454 12.9182 43.4477 13.6208 44.0523C14.3234 44.6066 14.7449 45.1609 14.8855 45.7151C15.5412 47.781 16.6888 49.3682 18.3282 50.4767C19.9676 51.5349 22.0051 52.064 24.4408 52.064C27.2512 52.064 29.5932 51.5097 31.4668 50.4012C33.3872 49.2926 34.3474 47.8062 34.3474 45.9419C34.3474 44.1279 33.3169 42.5155 31.256 41.1047C29.195 39.6938 27.0872 38.7112 24.9326 38.157C21.8412 37.25 19.101 36.1667 16.7122 34.907C14.2297 33.5969 12.3795 31.9845 11.1617 30.0698C9.94385 28.155 9.33494 26.1395 9.33494 24.0233C9.33494 22.0581 9.96727 20.0678 11.232 18.0523C12.4966 15.9864 13.9955 14.5 15.7286 13.593C16.6654 13.0891 18.2579 12.5601 20.5062 12.0058C22.8014 11.4012 24.4642 11.0988 25.4947 11.0988C26.853 11.0988 28.3519 11.2752 29.9913 11.6279C31.6307 11.9806 32.9656 12.4845 33.9961 13.1395C36.0571 14.3992 37.5794 15.5329 38.563 16.5407C39.5466 17.5484 40.0385 18.8081 40.0385 20.3198C40.0385 21.2267 39.7106 22.0329 39.0548 22.7384C38.4459 23.4438 37.3686 23.7965 35.8229 23.7965C35.4482 23.7965 35.0734 23.6202 34.6987 23.2674C34.324 22.9147 33.8556 22.3857 33.2935 21.6802C32.5441 20.6221 31.8181 19.9167 31.1155 19.564C30.4129 19.312 29.3824 19.0349 28.024 18.7326C26.7125 18.4302 25.5415 18.2791 24.5111 18.2791C23.3869 18.2791 22.2159 18.531 20.9981 19.0349C19.7802 19.5388 18.7497 20.2694 17.9066 21.2267C17.1104 22.1337 16.7122 23.1919 16.7122 24.4012C16.7122 25.4089 17.1338 26.2907 17.9769 27.0465C18.8668 27.7519 19.9207 28.3314 21.1386 28.7849C22.5438 29.3895 24.0661 29.9186 25.7055 30.3721C27.8601 31.0775 29.6166 31.7326 30.975 32.3372C32.3801 32.8915 33.7385 33.5969 35.05 34.4535C37.3452 35.9147 39.008 37.4264 40.0385 38.9884C41.0689 40.5 41.5842 42.6163 41.5842 45.3372Z"/>
<path d="M73.0973 33.7733C73.0973 35.9903 72.0434 37.0988 69.9357 37.0988C69.2331 37.0988 68.6476 36.9225 68.1792 36.5698C67.7108 36.2171 67.1955 35.688 66.6334 34.9826C65.2282 33.3198 64.0104 32.4884 62.9799 32.4884C61.6216 32.4884 60.2866 32.9167 58.9751 33.7733C57.7104 34.6298 56.68 35.8391 55.8837 37.4012C55.0874 38.9632 54.6893 40.7016 54.6893 42.6163C54.6893 44.7326 55.064 46.4961 55.8134 47.907C56.6097 49.3178 57.8276 50.5271 59.4669 51.5349C60.0759 51.8876 60.7785 52.1647 61.5747 52.3663C62.4179 52.5678 63.1439 52.6686 63.7528 52.6686C65.1111 52.6686 66.8208 52.0892 68.8818 50.9302C69.6312 50.5271 70.2635 50.2248 70.7788 50.0233C71.294 49.8217 71.8327 49.7209 72.3947 49.7209C72.91 49.7209 73.4955 49.9729 74.1512 50.4767C74.807 50.9806 75.1349 51.6105 75.1349 52.3663C75.1349 53.8779 74.4791 55.1628 73.1676 56.2209C71.8561 57.2287 70.2401 58.0097 68.3197 58.564C66.4461 59.0678 64.6428 59.3198 62.9097 59.3198C60.1461 59.3198 57.5699 58.6395 55.1811 57.2791C52.8391 55.9186 50.9655 54.0543 49.5603 51.686C48.1551 49.2674 47.4525 46.5465 47.4525 43.5233C47.4525 40.2985 48.1317 37.3508 49.4901 34.6802C50.8484 32.0097 52.6752 29.9186 54.9703 28.407C57.2655 26.8953 59.7714 26.1395 62.4881 26.1395C64.0338 26.1395 65.6264 26.4419 67.2658 27.0465C68.9052 27.6512 70.287 28.5329 71.4111 29.6919C72.5353 30.8508 73.0973 32.2112 73.0973 33.7733Z"/>
<path d="M81.3704 32.4884C80.1526 31.5814 79.5437 30.624 79.5437 29.6163C79.5437 28.9109 79.8247 28.2558 80.3868 27.6512C80.9489 27.0465 81.792 26.7442 82.9161 26.7442C84.2277 26.7442 85.3987 27.1221 86.4291 27.8779C87.5065 28.5833 88.2559 29.6163 88.6775 30.9767C89.7548 29.6163 90.9726 28.5329 92.331 27.7267C93.7362 26.9205 95.1648 26.5174 96.6168 26.5174C98.3499 26.5174 99.919 27.0213 101.324 28.0291C102.729 29.0368 103.432 30.3973 103.432 32.1105C103.432 33.0678 103.034 34.0504 102.238 35.0581C101.488 36.0659 100.715 36.5698 99.919 36.5698C99.4975 36.5698 99.1227 36.469 98.7949 36.2674C98.5138 36.0155 98.1625 35.6628 97.741 35.2093C97.2726 34.7054 96.8744 34.3527 96.5466 34.1512C96.2187 33.8992 95.844 33.7733 95.4224 33.7733C94.673 33.7733 93.9704 33.8992 93.3146 34.1512C92.6588 34.4031 92.2139 34.7054 91.9797 35.0581C91.2302 36.3178 90.6681 37.4516 90.2934 38.4593C89.9655 39.4671 89.8016 40.5504 89.8016 41.7093C89.8016 42.5659 89.7782 43.2461 89.7313 43.75L89.6611 48.0581C89.6611 48.7132 89.6845 49.4438 89.7313 50.25C89.7782 51.0562 89.825 51.6609 89.8719 52.064C90.0124 53.4244 90.0826 54.7345 90.0826 55.9942C90.0826 56.8508 89.7782 57.6066 89.1693 58.2616C88.5604 58.9167 87.8109 59.2442 86.921 59.2442C85.5158 59.2442 84.4853 58.9671 83.8295 58.4128C83.1738 57.8081 82.8459 56.7248 82.8459 55.1628L82.7756 50.3256C82.7288 49.3682 82.7054 48.0078 82.7054 46.2442L82.7756 41.2558C82.8693 38.8372 82.9161 36.8721 82.9161 35.3605C82.9161 34.8062 82.7991 34.3023 82.5649 33.8488C82.3775 33.3953 81.9794 32.9419 81.3704 32.4884Z"/>
<path d="M111.157 10.4942C112.797 10.6453 114.225 11.124 115.443 11.9302C116.661 12.686 117.27 13.845 117.27 15.407C117.27 16.5659 116.755 17.4981 115.724 18.2035C114.741 18.8585 113.546 19.186 112.141 19.186C110.783 19.186 109.846 18.8081 109.331 18.0523C108.815 17.2965 108.558 16.5155 108.558 15.7093C108.558 14.1977 108.698 12.938 108.979 11.9302C109.307 10.9225 110.033 10.4438 111.157 10.4942ZM116.778 46.1686C116.778 48.1337 116.825 49.9981 116.919 51.7616C117.059 53.4748 117.223 55.2132 117.41 56.9767C117.364 57.4806 117.012 58.0097 116.357 58.564C115.701 59.0678 115.115 59.3198 114.6 59.3198C113.71 59.3198 112.797 59.1434 111.86 58.7907C110.97 58.3876 110.431 57.9089 110.244 57.3547C109.963 55.7423 109.822 54.3062 109.822 53.0465C109.822 48.9147 109.705 44.2791 109.471 39.1395C109.284 34.6047 109.19 31.4302 109.19 29.6163C109.19 28.7093 109.612 27.9283 110.455 27.2733C111.298 26.6182 112.188 26.2907 113.125 26.2907C114.483 26.2907 115.42 26.6182 115.935 27.2733C116.497 27.9283 116.778 28.9612 116.778 30.3721V46.1686Z"/>
<path d="M126.956 33.0174C126.956 28.4826 126.886 24.8798 126.745 22.2093C126.651 20.6977 126.558 19.564 126.464 18.8081C126.23 14.8779 126.113 12.4341 126.113 11.4767C126.113 9.15891 127.19 8 129.345 8C130.703 8 131.616 8.37791 132.085 9.13372C132.6 9.88953 132.951 11.124 133.139 12.8372C133.607 16.314 133.841 20.3953 133.841 25.0814C133.841 27.1977 133.771 29.314 133.631 31.4302C134.474 30.0194 135.809 28.8605 137.635 27.9535C139.509 27.0465 141.219 26.593 142.764 26.593C144.872 26.593 146.629 27.0717 148.034 28.0291C149.486 28.936 150.914 30.2713 152.32 32.0349C153.116 33.2946 153.819 34.8062 154.427 36.5698C155.083 38.2829 155.411 39.7694 155.411 41.0291C155.411 43.1957 155.083 45.4884 154.427 47.907C153.819 50.2752 152.999 52.1143 151.968 53.4244C150.657 55.1376 149.158 56.4225 147.472 57.2791C145.832 58.1357 143.865 58.564 141.57 58.564C138.01 58.564 135.2 57.0019 133.139 53.8779C132.905 55.1376 132.389 56.3973 131.593 57.657C130.797 58.8663 129.883 59.4709 128.853 59.4709C128.01 59.4709 127.307 59.2442 126.745 58.7907C126.183 58.2868 125.902 57.5562 125.902 56.5988C125.902 56.2461 125.996 55.3643 126.183 53.9535C126.651 50.9302 126.886 48.0833 126.886 45.4128L126.956 33.0174ZM140.446 52.2907C141.523 52.2907 142.483 52.1395 143.326 51.8372C144.17 51.4845 145.106 50.9302 146.137 50.1744C146.933 49.6705 147.519 48.7132 147.893 47.3023C148.315 45.8915 148.526 44.3295 148.526 42.6163C148.526 39.9961 147.846 37.6531 146.488 35.5872C145.973 34.9826 145.294 34.4787 144.451 34.0756C143.607 33.6725 142.764 33.4709 141.921 33.4709C139.907 33.4709 138.151 34.0756 136.652 35.2849C135.2 36.4942 134.38 38.1822 134.193 40.3488C134.193 41.0039 134.169 41.5329 134.122 41.936L133.982 47.907C134.544 49.0659 135.457 50.0988 136.722 51.0058C137.987 51.8624 139.228 52.2907 140.446 52.2907Z"/>
<path d="M164.014 45.4128C164.014 42.5911 164.037 40.4496 164.084 38.9884L164.154 31.8081C164.154 28.8857 164.084 25.686 163.943 22.2093C163.896 21.1512 163.732 19.6899 163.451 17.8256C163.077 15.0039 162.889 12.8876 162.889 11.4767C162.889 9.15891 163.967 8 166.121 8C167.48 8 168.44 8.4031 169.002 9.2093C169.611 9.96511 170.032 11.1744 170.267 12.8372C170.735 16.314 170.969 20.3953 170.969 25.0814C170.969 26.4922 170.922 28.6085 170.829 31.4302C171.719 29.9186 172.866 28.7345 174.271 27.8779C175.723 27.0213 177.152 26.593 178.557 26.593C182.632 26.593 186.145 28.407 189.096 32.0349C189.893 33.2946 190.595 34.8062 191.204 36.5698C191.86 38.2829 192.188 39.7694 192.188 41.0291C192.188 43.2461 191.954 45.2868 191.485 47.1512C191.064 49.0155 190.291 50.8295 189.167 52.593C188.042 54.3566 186.614 55.7926 184.881 56.9012C183.194 58.0097 181.227 58.564 178.979 58.564C177.012 58.564 175.232 58.1357 173.639 57.2791C172.093 56.4225 170.852 55.2888 169.915 53.8779C169.681 55.1376 169.166 56.3973 168.37 57.657C167.573 58.8663 166.66 59.4709 165.629 59.4709C164.786 59.4709 164.084 59.2442 163.522 58.7907C162.96 58.2868 162.679 57.5562 162.679 56.5988C162.679 55.8934 162.819 55.0116 163.1 53.9535C163.381 52.4922 163.592 51.157 163.732 49.9477C163.92 48.688 164.014 47.1764 164.014 45.4128ZM177.222 52.2907C179.518 52.2907 181.438 51.4341 182.984 49.7209C184.529 47.9574 185.302 45.5892 185.302 42.6163C185.302 39.8954 184.623 37.5523 183.265 35.5872C182.796 34.9322 182.117 34.4031 181.227 34C180.384 33.5969 179.541 33.3954 178.698 33.3954C176.731 33.3954 175.068 34.0252 173.709 35.2849C172.351 36.4942 171.578 38.1822 171.391 40.3488C171.203 43.2713 171.11 45.7907 171.11 47.907C171.672 49.0659 172.515 50.0988 173.639 51.0058C174.81 51.8624 176.005 52.2907 177.222 52.2907Z"/>
<path d="M206.699 47.3023C206.699 49.2171 206.956 50.7035 207.471 51.7616C208.033 52.7694 208.736 53.2733 209.579 53.2733C210.048 53.2733 210.493 53.2481 210.914 53.1977C211.336 53.0969 211.757 53.0465 212.179 53.0465C212.647 53.0465 213.045 53.2985 213.373 53.8023C213.748 54.3062 213.935 54.8605 213.935 55.4651C213.935 56.6744 213.397 57.6318 212.319 58.3372C211.289 58.9923 209.884 59.3198 208.104 59.3198C206.839 59.3198 205.551 58.9167 204.239 58.1105C202.975 57.2539 201.921 55.9438 201.078 54.1802C200.235 52.3663 199.813 50.124 199.813 47.4535C199.813 41.7093 199.907 36.8469 200.094 32.8663C200.328 28.1298 200.445 22.1589 200.445 14.9535C200.445 12.686 200.563 11.0988 200.797 10.1919C201.078 9.48643 201.523 8.95736 202.132 8.60465C202.787 8.20155 203.467 8 204.169 8C204.872 8 205.481 8.12597 205.996 8.37791C206.558 8.62984 206.933 9.03294 207.12 9.58721C207.307 10.1919 207.425 10.7965 207.471 11.4012C207.565 11.9554 207.612 12.7616 207.612 13.8198C207.612 15.8857 207.542 17.876 207.401 19.7907C207.307 22.1085 207.261 23.7965 207.261 24.8547C206.886 33.7229 206.699 41.2054 206.699 47.3023Z"/>
<path d="M218.025 41.7093C218.025 38.6357 218.657 36.0911 219.922 34.0756C221.186 32.0097 222.943 30.0698 225.191 28.2558C225.847 27.7519 226.948 27.3236 228.493 26.9709C230.039 26.5678 231.397 26.3663 232.568 26.3663C233.974 26.3663 235.449 26.6938 236.995 27.3488C238.587 27.9535 239.875 28.6589 240.859 29.4651C242.592 30.8256 243.787 32.4128 244.442 34.2267C245.098 35.9903 245.426 38.1066 245.426 40.5756C245.426 41.6337 244.864 42.6667 243.74 43.6744C242.662 44.6318 241.491 45.1105 240.227 45.1105L237.557 45.0349C236.199 45.0349 234.255 45.0853 231.725 45.186L230.25 45.2616C229.219 45.3624 228.446 45.4128 227.931 45.4128C227.182 45.4128 226.151 45.312 224.84 45.1105C225.027 47.4787 225.847 49.343 227.299 50.7035C228.751 52.0136 230.32 52.6686 232.006 52.6686C234.957 52.6686 237.018 52.0388 238.189 50.7791C239.173 50.0233 239.829 49.5446 240.156 49.343C240.484 49.1415 241 49.0407 241.702 49.0407C242.452 49.0407 243.107 49.4186 243.669 50.1744C244.232 50.9302 244.513 51.686 244.513 52.4419C244.513 53.2985 244.021 54.1802 243.037 55.0872C242.1 55.9438 240.812 56.8508 239.173 57.8081C238.283 58.2112 237.065 58.564 235.519 58.8663C233.974 59.1686 232.686 59.3198 231.655 59.3198C230.016 59.3198 228.189 58.8159 226.175 57.8081C224.161 56.75 222.662 55.5911 221.678 54.3314C220.695 53.0717 219.828 51.283 219.079 48.9651C218.376 46.6473 218.025 44.2287 218.025 41.7093ZM232.006 39.6686C235.332 39.6686 237.768 39.5426 239.313 39.2907C239.22 37.8295 238.798 36.6453 238.049 35.7384C237.299 34.781 236.269 33.9748 234.957 33.3198C234.536 33.1182 234.161 32.9671 233.833 32.8663C233.505 32.7655 233.13 32.7151 232.709 32.7151C230.554 32.7151 228.728 33.345 227.229 34.6047C225.777 35.8643 224.91 37.4767 224.629 39.4419C226.971 39.593 229.43 39.6686 232.006 39.6686Z"/>
<path d="M261.839 54.8605C261.839 56.1202 261.371 57.3043 260.434 58.4128C259.497 59.4709 258.467 60 257.343 60C256.031 60 254.837 59.6221 253.759 58.8663C252.682 58.0601 252.143 57.0523 252.143 55.843C252.143 53.9283 252.471 52.5174 253.127 51.6105C253.83 50.7035 254.86 50.25 256.219 50.25C257.811 50.25 259.146 50.6783 260.223 51.5349C261.301 52.3411 261.839 53.4496 261.839 54.8605Z"/>
<path d="M272.806 10.4942C274.446 10.6453 275.851 11.124 277.022 11.9302C278.24 12.686 278.849 13.845 278.849 15.407C278.849 16.5659 278.357 17.4981 277.373 18.2035C276.39 18.8585 275.172 19.186 273.72 19.186C272.361 19.186 271.425 18.8081 270.909 18.0523C270.394 17.2965 270.137 16.5155 270.137 15.7093C270.137 14.2481 270.3 13.0136 270.628 12.0058C270.956 10.9477 271.682 10.4438 272.806 10.4942ZM271.401 41.7093V39.5174C271.401 36.9981 271.284 34.7054 271.05 32.6395C270.863 30.5233 270.745 29.2132 270.699 28.7093C270.745 28.155 271.097 27.626 271.753 27.1221C272.408 26.6182 272.994 26.3663 273.509 26.3663C274.399 26.3663 275.289 26.5678 276.179 26.9709C277.116 27.3236 277.701 27.7771 277.935 28.3314C278.17 30.1957 278.287 31.6318 278.287 32.6395C278.287 34.8566 278.38 38.4845 278.568 43.5233L278.638 46.4709L278.778 49.343C278.825 50.1492 278.872 51.1066 278.919 52.2151C278.966 53.3236 278.989 54.5833 278.989 55.9942C278.989 56.9516 278.544 57.7578 277.654 58.4128C276.811 59.0678 275.921 59.3954 274.984 59.3954C273.626 59.3954 272.666 59.0678 272.104 58.4128C271.589 57.7578 271.331 56.7248 271.331 55.314L271.401 41.7093Z"/>
<path d="M287.344 32.8663C286.688 32.7655 286.149 32.4632 285.728 31.9593C285.353 31.4554 285.166 30.8508 285.166 30.1453C285.166 29.7926 285.236 29.4147 285.376 29.0116C285.564 28.6085 285.821 28.2558 286.149 27.9535C286.758 27.3992 287.578 26.8702 288.608 26.3663C289.686 25.9128 290.458 25.3585 290.927 24.7035C291.395 24.0485 291.629 22.814 291.629 21C291.629 20.2442 291.583 19.5891 291.489 19.0349C291.442 18.4806 291.419 18.0523 291.419 17.75C291.419 16.6415 291.793 15.8101 292.543 15.2558C293.292 14.7015 294.159 14.4244 295.142 14.4244C296.36 14.4244 297.18 14.7519 297.602 15.407C298.07 16.062 298.304 17.2713 298.304 19.0349C298.304 20.7481 298.234 22.2345 298.093 23.4942C297.953 24.7035 297.648 25.7868 297.18 26.7442C297.836 26.7442 298.913 26.6938 300.412 26.593C302.473 26.4922 303.902 26.4419 304.698 26.4419C305.494 26.4419 306.197 26.6686 306.806 27.1221C307.414 27.5252 307.719 28.1047 307.719 28.8605C307.719 29.9186 307.508 30.6996 307.087 31.2035C306.665 31.7074 306.056 32.0349 305.26 32.186C303.339 32.7403 300.623 33.0678 297.11 33.1686C297.016 35.1337 296.969 37.2752 296.969 39.593C296.969 43.4729 297.18 46.4457 297.602 48.5116C297.883 50.124 298.351 51.3081 299.007 52.064C299.709 52.7694 300.74 53.1221 302.098 53.1221C302.801 53.1221 303.363 53.0213 303.784 52.8198C304.253 52.6182 304.51 52.4923 304.557 52.4419C305.119 52.0891 305.635 51.9128 306.103 51.9128C306.759 51.9128 307.227 52.1395 307.508 52.593C307.836 53.0465 308 53.6512 308 54.407C308 55.8178 307.297 57.0019 305.892 57.9593C304.487 58.8663 302.684 59.3198 300.482 59.3198C298 59.3198 295.892 58.5388 294.159 56.9767C292.473 55.3643 291.466 53.2481 291.138 50.6279C290.669 48.2597 290.435 44.9341 290.435 40.6512C290.435 38.7868 290.529 36.2926 290.716 33.1686L287.344 32.8663Z"/>
</mask>
<path d="M41.5842 45.3372C41.5842 47.7054 41.0689 49.7461 40.0385 51.4593C39.0548 53.1221 37.4154 54.6589 35.1203 56.0698C33.5746 57.0775 31.7712 57.8333 29.7103 58.3372C27.6493 58.8411 25.565 59.093 23.4572 59.093C21.3025 59.093 18.6326 58.3372 15.4475 56.8256C13.1524 55.6163 11.3256 54.1802 9.96727 52.5174C8.65576 50.8547 8 49.0407 8 47.0756C8 45.7151 8.28104 44.7326 8.84312 44.1279C9.4052 43.4729 10.3186 43.1454 11.5832 43.1454C12.239 43.1454 12.9182 43.4477 13.6208 44.0523C14.3234 44.6066 14.7449 45.1609 14.8855 45.7151C15.5412 47.781 16.6888 49.3682 18.3282 50.4767C19.9676 51.5349 22.0051 52.064 24.4408 52.064C27.2512 52.064 29.5932 51.5097 31.4668 50.4012C33.3872 49.2926 34.3474 47.8062 34.3474 45.9419C34.3474 44.1279 33.3169 42.5155 31.256 41.1047C29.195 39.6938 27.0872 38.7112 24.9326 38.157C21.8412 37.25 19.101 36.1667 16.7122 34.907C14.2297 33.5969 12.3795 31.9845 11.1617 30.0698C9.94385 28.155 9.33494 26.1395 9.33494 24.0233C9.33494 22.0581 9.96727 20.0678 11.232 18.0523C12.4966 15.9864 13.9955 14.5 15.7286 13.593C16.6654 13.0891 18.2579 12.5601 20.5062 12.0058C22.8014 11.4012 24.4642 11.0988 25.4947 11.0988C26.853 11.0988 28.3519 11.2752 29.9913 11.6279C31.6307 11.9806 32.9656 12.4845 33.9961 13.1395C36.0571 14.3992 37.5794 15.5329 38.563 16.5407C39.5466 17.5484 40.0385 18.8081 40.0385 20.3198C40.0385 21.2267 39.7106 22.0329 39.0548 22.7384C38.4459 23.4438 37.3686 23.7965 35.8229 23.7965C35.4482 23.7965 35.0734 23.6202 34.6987 23.2674C34.324 22.9147 33.8556 22.3857 33.2935 21.6802C32.5441 20.6221 31.8181 19.9167 31.1155 19.564C30.4129 19.312 29.3824 19.0349 28.024 18.7326C26.7125 18.4302 25.5415 18.2791 24.5111 18.2791C23.3869 18.2791 22.2159 18.531 20.9981 19.0349C19.7802 19.5388 18.7497 20.2694 17.9066 21.2267C17.1104 22.1337 16.7122 23.1919 16.7122 24.4012C16.7122 25.4089 17.1338 26.2907 17.9769 27.0465C18.8668 27.7519 19.9207 28.3314 21.1386 28.7849C22.5438 29.3895 24.0661 29.9186 25.7055 30.3721C27.8601 31.0775 29.6166 31.7326 30.975 32.3372C32.3801 32.8915 33.7385 33.5969 35.05 34.4535C37.3452 35.9147 39.008 37.4264 40.0385 38.9884C41.0689 40.5 41.5842 42.6163 41.5842 45.3372Z" fill="url(#paint0_linear_20_5)"/>
<path d="M73.0973 33.7733C73.0973 35.9903 72.0434 37.0988 69.9357 37.0988C69.2331 37.0988 68.6476 36.9225 68.1792 36.5698C67.7108 36.2171 67.1955 35.688 66.6334 34.9826C65.2282 33.3198 64.0104 32.4884 62.9799 32.4884C61.6216 32.4884 60.2866 32.9167 58.9751 33.7733C57.7104 34.6298 56.68 35.8391 55.8837 37.4012C55.0874 38.9632 54.6893 40.7016 54.6893 42.6163C54.6893 44.7326 55.064 46.4961 55.8134 47.907C56.6097 49.3178 57.8276 50.5271 59.4669 51.5349C60.0759 51.8876 60.7785 52.1647 61.5747 52.3663C62.4179 52.5678 63.1439 52.6686 63.7528 52.6686C65.1111 52.6686 66.8208 52.0892 68.8818 50.9302C69.6312 50.5271 70.2635 50.2248 70.7788 50.0233C71.294 49.8217 71.8327 49.7209 72.3947 49.7209C72.91 49.7209 73.4955 49.9729 74.1512 50.4767C74.807 50.9806 75.1349 51.6105 75.1349 52.3663C75.1349 53.8779 74.4791 55.1628 73.1676 56.2209C71.8561 57.2287 70.2401 58.0097 68.3197 58.564C66.4461 59.0678 64.6428 59.3198 62.9097 59.3198C60.1461 59.3198 57.5699 58.6395 55.1811 57.2791C52.8391 55.9186 50.9655 54.0543 49.5603 51.686C48.1551 49.2674 47.4525 46.5465 47.4525 43.5233C47.4525 40.2985 48.1317 37.3508 49.4901 34.6802C50.8484 32.0097 52.6752 29.9186 54.9703 28.407C57.2655 26.8953 59.7714 26.1395 62.4881 26.1395C64.0338 26.1395 65.6264 26.4419 67.2658 27.0465C68.9052 27.6512 70.287 28.5329 71.4111 29.6919C72.5353 30.8508 73.0973 32.2112 73.0973 33.7733Z" fill="url(#paint1_linear_20_5)"/>
<path d="M81.3704 32.4884C80.1526 31.5814 79.5437 30.624 79.5437 29.6163C79.5437 28.9109 79.8247 28.2558 80.3868 27.6512C80.9489 27.0465 81.792 26.7442 82.9161 26.7442C84.2277 26.7442 85.3987 27.1221 86.4291 27.8779C87.5065 28.5833 88.2559 29.6163 88.6775 30.9767C89.7548 29.6163 90.9726 28.5329 92.331 27.7267C93.7362 26.9205 95.1648 26.5174 96.6168 26.5174C98.3499 26.5174 99.919 27.0213 101.324 28.0291C102.729 29.0368 103.432 30.3973 103.432 32.1105C103.432 33.0678 103.034 34.0504 102.238 35.0581C101.488 36.0659 100.715 36.5698 99.919 36.5698C99.4975 36.5698 99.1227 36.469 98.7949 36.2674C98.5138 36.0155 98.1625 35.6628 97.741 35.2093C97.2726 34.7054 96.8744 34.3527 96.5466 34.1512C96.2187 33.8992 95.844 33.7733 95.4224 33.7733C94.673 33.7733 93.9704 33.8992 93.3146 34.1512C92.6588 34.4031 92.2139 34.7054 91.9797 35.0581C91.2302 36.3178 90.6681 37.4516 90.2934 38.4593C89.9655 39.4671 89.8016 40.5504 89.8016 41.7093C89.8016 42.5659 89.7782 43.2461 89.7313 43.75L89.6611 48.0581C89.6611 48.7132 89.6845 49.4438 89.7313 50.25C89.7782 51.0562 89.825 51.6609 89.8719 52.064C90.0124 53.4244 90.0826 54.7345 90.0826 55.9942C90.0826 56.8508 89.7782 57.6066 89.1693 58.2616C88.5604 58.9167 87.8109 59.2442 86.921 59.2442C85.5158 59.2442 84.4853 58.9671 83.8295 58.4128C83.1738 57.8081 82.8459 56.7248 82.8459 55.1628L82.7756 50.3256C82.7288 49.3682 82.7054 48.0078 82.7054 46.2442L82.7756 41.2558C82.8693 38.8372 82.9161 36.8721 82.9161 35.3605C82.9161 34.8062 82.7991 34.3023 82.5649 33.8488C82.3775 33.3953 81.9794 32.9419 81.3704 32.4884Z" fill="url(#paint2_linear_20_5)"/>
<path d="M111.157 10.4942C112.797 10.6453 114.225 11.124 115.443 11.9302C116.661 12.686 117.27 13.845 117.27 15.407C117.27 16.5659 116.755 17.4981 115.724 18.2035C114.741 18.8585 113.546 19.186 112.141 19.186C110.783 19.186 109.846 18.8081 109.331 18.0523C108.815 17.2965 108.558 16.5155 108.558 15.7093C108.558 14.1977 108.698 12.938 108.979 11.9302C109.307 10.9225 110.033 10.4438 111.157 10.4942ZM116.778 46.1686C116.778 48.1337 116.825 49.9981 116.919 51.7616C117.059 53.4748 117.223 55.2132 117.41 56.9767C117.364 57.4806 117.012 58.0097 116.357 58.564C115.701 59.0678 115.115 59.3198 114.6 59.3198C113.71 59.3198 112.797 59.1434 111.86 58.7907C110.97 58.3876 110.431 57.9089 110.244 57.3547C109.963 55.7423 109.822 54.3062 109.822 53.0465C109.822 48.9147 109.705 44.2791 109.471 39.1395C109.284 34.6047 109.19 31.4302 109.19 29.6163C109.19 28.7093 109.612 27.9283 110.455 27.2733C111.298 26.6182 112.188 26.2907 113.125 26.2907C114.483 26.2907 115.42 26.6182 115.935 27.2733C116.497 27.9283 116.778 28.9612 116.778 30.3721V46.1686Z" fill="url(#paint3_linear_20_5)"/>
<path d="M126.956 33.0174C126.956 28.4826 126.886 24.8798 126.745 22.2093C126.651 20.6977 126.558 19.564 126.464 18.8081C126.23 14.8779 126.113 12.4341 126.113 11.4767C126.113 9.15891 127.19 8 129.345 8C130.703 8 131.616 8.37791 132.085 9.13372C132.6 9.88953 132.951 11.124 133.139 12.8372C133.607 16.314 133.841 20.3953 133.841 25.0814C133.841 27.1977 133.771 29.314 133.631 31.4302C134.474 30.0194 135.809 28.8605 137.635 27.9535C139.509 27.0465 141.219 26.593 142.764 26.593C144.872 26.593 146.629 27.0717 148.034 28.0291C149.486 28.936 150.914 30.2713 152.32 32.0349C153.116 33.2946 153.819 34.8062 154.427 36.5698C155.083 38.2829 155.411 39.7694 155.411 41.0291C155.411 43.1957 155.083 45.4884 154.427 47.907C153.819 50.2752 152.999 52.1143 151.968 53.4244C150.657 55.1376 149.158 56.4225 147.472 57.2791C145.832 58.1357 143.865 58.564 141.57 58.564C138.01 58.564 135.2 57.0019 133.139 53.8779C132.905 55.1376 132.389 56.3973 131.593 57.657C130.797 58.8663 129.883 59.4709 128.853 59.4709C128.01 59.4709 127.307 59.2442 126.745 58.7907C126.183 58.2868 125.902 57.5562 125.902 56.5988C125.902 56.2461 125.996 55.3643 126.183 53.9535C126.651 50.9302 126.886 48.0833 126.886 45.4128L126.956 33.0174ZM140.446 52.2907C141.523 52.2907 142.483 52.1395 143.326 51.8372C144.17 51.4845 145.106 50.9302 146.137 50.1744C146.933 49.6705 147.519 48.7132 147.893 47.3023C148.315 45.8915 148.526 44.3295 148.526 42.6163C148.526 39.9961 147.846 37.6531 146.488 35.5872C145.973 34.9826 145.294 34.4787 144.451 34.0756C143.607 33.6725 142.764 33.4709 141.921 33.4709C139.907 33.4709 138.151 34.0756 136.652 35.2849C135.2 36.4942 134.38 38.1822 134.193 40.3488C134.193 41.0039 134.169 41.5329 134.122 41.936L133.982 47.907C134.544 49.0659 135.457 50.0988 136.722 51.0058C137.987 51.8624 139.228 52.2907 140.446 52.2907Z" fill="url(#paint4_linear_20_5)"/>
<path d="M164.014 45.4128C164.014 42.5911 164.037 40.4496 164.084 38.9884L164.154 31.8081C164.154 28.8857 164.084 25.686 163.943 22.2093C163.896 21.1512 163.732 19.6899 163.451 17.8256C163.077 15.0039 162.889 12.8876 162.889 11.4767C162.889 9.15891 163.967 8 166.121 8C167.48 8 168.44 8.4031 169.002 9.2093C169.611 9.96511 170.032 11.1744 170.267 12.8372C170.735 16.314 170.969 20.3953 170.969 25.0814C170.969 26.4922 170.922 28.6085 170.829 31.4302C171.719 29.9186 172.866 28.7345 174.271 27.8779C175.723 27.0213 177.152 26.593 178.557 26.593C182.632 26.593 186.145 28.407 189.096 32.0349C189.893 33.2946 190.595 34.8062 191.204 36.5698C191.86 38.2829 192.188 39.7694 192.188 41.0291C192.188 43.2461 191.954 45.2868 191.485 47.1512C191.064 49.0155 190.291 50.8295 189.167 52.593C188.042 54.3566 186.614 55.7926 184.881 56.9012C183.194 58.0097 181.227 58.564 178.979 58.564C177.012 58.564 175.232 58.1357 173.639 57.2791C172.093 56.4225 170.852 55.2888 169.915 53.8779C169.681 55.1376 169.166 56.3973 168.37 57.657C167.573 58.8663 166.66 59.4709 165.629 59.4709C164.786 59.4709 164.084 59.2442 163.522 58.7907C162.96 58.2868 162.679 57.5562 162.679 56.5988C162.679 55.8934 162.819 55.0116 163.1 53.9535C163.381 52.4922 163.592 51.157 163.732 49.9477C163.92 48.688 164.014 47.1764 164.014 45.4128ZM177.222 52.2907C179.518 52.2907 181.438 51.4341 182.984 49.7209C184.529 47.9574 185.302 45.5892 185.302 42.6163C185.302 39.8954 184.623 37.5523 183.265 35.5872C182.796 34.9322 182.117 34.4031 181.227 34C180.384 33.5969 179.541 33.3954 178.698 33.3954C176.731 33.3954 175.068 34.0252 173.709 35.2849C172.351 36.4942 171.578 38.1822 171.391 40.3488C171.203 43.2713 171.11 45.7907 171.11 47.907C171.672 49.0659 172.515 50.0988 173.639 51.0058C174.81 51.8624 176.005 52.2907 177.222 52.2907Z" fill="url(#paint5_linear_20_5)"/>
<path d="M206.699 47.3023C206.699 49.2171 206.956 50.7035 207.471 51.7616C208.033 52.7694 208.736 53.2733 209.579 53.2733C210.048 53.2733 210.493 53.2481 210.914 53.1977C211.336 53.0969 211.757 53.0465 212.179 53.0465C212.647 53.0465 213.045 53.2985 213.373 53.8023C213.748 54.3062 213.935 54.8605 213.935 55.4651C213.935 56.6744 213.397 57.6318 212.319 58.3372C211.289 58.9923 209.884 59.3198 208.104 59.3198C206.839 59.3198 205.551 58.9167 204.239 58.1105C202.975 57.2539 201.921 55.9438 201.078 54.1802C200.235 52.3663 199.813 50.124 199.813 47.4535C199.813 41.7093 199.907 36.8469 200.094 32.8663C200.328 28.1298 200.445 22.1589 200.445 14.9535C200.445 12.686 200.563 11.0988 200.797 10.1919C201.078 9.48643 201.523 8.95736 202.132 8.60465C202.787 8.20155 203.467 8 204.169 8C204.872 8 205.481 8.12597 205.996 8.37791C206.558 8.62984 206.933 9.03294 207.12 9.58721C207.307 10.1919 207.425 10.7965 207.471 11.4012C207.565 11.9554 207.612 12.7616 207.612 13.8198C207.612 15.8857 207.542 17.876 207.401 19.7907C207.307 22.1085 207.261 23.7965 207.261 24.8547C206.886 33.7229 206.699 41.2054 206.699 47.3023Z" fill="url(#paint6_linear_20_5)"/>
<path d="M218.025 41.7093C218.025 38.6357 218.657 36.0911 219.922 34.0756C221.186 32.0097 222.943 30.0698 225.191 28.2558C225.847 27.7519 226.948 27.3236 228.493 26.9709C230.039 26.5678 231.397 26.3663 232.568 26.3663C233.974 26.3663 235.449 26.6938 236.995 27.3488C238.587 27.9535 239.875 28.6589 240.859 29.4651C242.592 30.8256 243.787 32.4128 244.442 34.2267C245.098 35.9903 245.426 38.1066 245.426 40.5756C245.426 41.6337 244.864 42.6667 243.74 43.6744C242.662 44.6318 241.491 45.1105 240.227 45.1105L237.557 45.0349C236.199 45.0349 234.255 45.0853 231.725 45.186L230.25 45.2616C229.219 45.3624 228.446 45.4128 227.931 45.4128C227.182 45.4128 226.151 45.312 224.84 45.1105C225.027 47.4787 225.847 49.343 227.299 50.7035C228.751 52.0136 230.32 52.6686 232.006 52.6686C234.957 52.6686 237.018 52.0388 238.189 50.7791C239.173 50.0233 239.829 49.5446 240.156 49.343C240.484 49.1415 241 49.0407 241.702 49.0407C242.452 49.0407 243.107 49.4186 243.669 50.1744C244.232 50.9302 244.513 51.686 244.513 52.4419C244.513 53.2985 244.021 54.1802 243.037 55.0872C242.1 55.9438 240.812 56.8508 239.173 57.8081C238.283 58.2112 237.065 58.564 235.519 58.8663C233.974 59.1686 232.686 59.3198 231.655 59.3198C230.016 59.3198 228.189 58.8159 226.175 57.8081C224.161 56.75 222.662 55.5911 221.678 54.3314C220.695 53.0717 219.828 51.283 219.079 48.9651C218.376 46.6473 218.025 44.2287 218.025 41.7093ZM232.006 39.6686C235.332 39.6686 237.768 39.5426 239.313 39.2907C239.22 37.8295 238.798 36.6453 238.049 35.7384C237.299 34.781 236.269 33.9748 234.957 33.3198C234.536 33.1182 234.161 32.9671 233.833 32.8663C233.505 32.7655 233.13 32.7151 232.709 32.7151C230.554 32.7151 228.728 33.345 227.229 34.6047C225.777 35.8643 224.91 37.4767 224.629 39.4419C226.971 39.593 229.43 39.6686 232.006 39.6686Z" fill="url(#paint7_linear_20_5)"/>
<path d="M261.839 54.8605C261.839 56.1202 261.371 57.3043 260.434 58.4128C259.497 59.4709 258.467 60 257.343 60C256.031 60 254.837 59.6221 253.759 58.8663C252.682 58.0601 252.143 57.0523 252.143 55.843C252.143 53.9283 252.471 52.5174 253.127 51.6105C253.83 50.7035 254.86 50.25 256.219 50.25C257.811 50.25 259.146 50.6783 260.223 51.5349C261.301 52.3411 261.839 53.4496 261.839 54.8605Z" fill="url(#paint8_linear_20_5)"/>
<path d="M272.806 10.4942C274.446 10.6453 275.851 11.124 277.022 11.9302C278.24 12.686 278.849 13.845 278.849 15.407C278.849 16.5659 278.357 17.4981 277.373 18.2035C276.39 18.8585 275.172 19.186 273.72 19.186C272.361 19.186 271.425 18.8081 270.909 18.0523C270.394 17.2965 270.137 16.5155 270.137 15.7093C270.137 14.2481 270.3 13.0136 270.628 12.0058C270.956 10.9477 271.682 10.4438 272.806 10.4942ZM271.401 41.7093V39.5174C271.401 36.9981 271.284 34.7054 271.05 32.6395C270.863 30.5233 270.745 29.2132 270.699 28.7093C270.745 28.155 271.097 27.626 271.753 27.1221C272.408 26.6182 272.994 26.3663 273.509 26.3663C274.399 26.3663 275.289 26.5678 276.179 26.9709C277.116 27.3236 277.701 27.7771 277.935 28.3314C278.17 30.1957 278.287 31.6318 278.287 32.6395C278.287 34.8566 278.38 38.4845 278.568 43.5233L278.638 46.4709L278.778 49.343C278.825 50.1492 278.872 51.1066 278.919 52.2151C278.966 53.3236 278.989 54.5833 278.989 55.9942C278.989 56.9516 278.544 57.7578 277.654 58.4128C276.811 59.0678 275.921 59.3954 274.984 59.3954C273.626 59.3954 272.666 59.0678 272.104 58.4128C271.589 57.7578 271.331 56.7248 271.331 55.314L271.401 41.7093Z" fill="url(#paint9_linear_20_5)"/>
<path d="M287.344 32.8663C286.688 32.7655 286.149 32.4632 285.728 31.9593C285.353 31.4554 285.166 30.8508 285.166 30.1453C285.166 29.7926 285.236 29.4147 285.376 29.0116C285.564 28.6085 285.821 28.2558 286.149 27.9535C286.758 27.3992 287.578 26.8702 288.608 26.3663C289.686 25.9128 290.458 25.3585 290.927 24.7035C291.395 24.0485 291.629 22.814 291.629 21C291.629 20.2442 291.583 19.5891 291.489 19.0349C291.442 18.4806 291.419 18.0523 291.419 17.75C291.419 16.6415 291.793 15.8101 292.543 15.2558C293.292 14.7015 294.159 14.4244 295.142 14.4244C296.36 14.4244 297.18 14.7519 297.602 15.407C298.07 16.062 298.304 17.2713 298.304 19.0349C298.304 20.7481 298.234 22.2345 298.093 23.4942C297.953 24.7035 297.648 25.7868 297.18 26.7442C297.836 26.7442 298.913 26.6938 300.412 26.593C302.473 26.4922 303.902 26.4419 304.698 26.4419C305.494 26.4419 306.197 26.6686 306.806 27.1221C307.414 27.5252 307.719 28.1047 307.719 28.8605C307.719 29.9186 307.508 30.6996 307.087 31.2035C306.665 31.7074 306.056 32.0349 305.26 32.186C303.339 32.7403 300.623 33.0678 297.11 33.1686C297.016 35.1337 296.969 37.2752 296.969 39.593C296.969 43.4729 297.18 46.4457 297.602 48.5116C297.883 50.124 298.351 51.3081 299.007 52.064C299.709 52.7694 300.74 53.1221 302.098 53.1221C302.801 53.1221 303.363 53.0213 303.784 52.8198C304.253 52.6182 304.51 52.4923 304.557 52.4419C305.119 52.0891 305.635 51.9128 306.103 51.9128C306.759 51.9128 307.227 52.1395 307.508 52.593C307.836 53.0465 308 53.6512 308 54.407C308 55.8178 307.297 57.0019 305.892 57.9593C304.487 58.8663 302.684 59.3198 300.482 59.3198C298 59.3198 295.892 58.5388 294.159 56.9767C292.473 55.3643 291.466 53.2481 291.138 50.6279C290.669 48.2597 290.435 44.9341 290.435 40.6512C290.435 38.7868 290.529 36.2926 290.716 33.1686L287.344 32.8663Z" fill="url(#paint10_linear_20_5)"/>
<path d="M41.5842 45.3372C41.5842 47.7054 41.0689 49.7461 40.0385 51.4593C39.0548 53.1221 37.4154 54.6589 35.1203 56.0698C33.5746 57.0775 31.7712 57.8333 29.7103 58.3372C27.6493 58.8411 25.565 59.093 23.4572 59.093C21.3025 59.093 18.6326 58.3372 15.4475 56.8256C13.1524 55.6163 11.3256 54.1802 9.96727 52.5174C8.65576 50.8547 8 49.0407 8 47.0756C8 45.7151 8.28104 44.7326 8.84312 44.1279C9.4052 43.4729 10.3186 43.1454 11.5832 43.1454C12.239 43.1454 12.9182 43.4477 13.6208 44.0523C14.3234 44.6066 14.7449 45.1609 14.8855 45.7151C15.5412 47.781 16.6888 49.3682 18.3282 50.4767C19.9676 51.5349 22.0051 52.064 24.4408 52.064C27.2512 52.064 29.5932 51.5097 31.4668 50.4012C33.3872 49.2926 34.3474 47.8062 34.3474 45.9419C34.3474 44.1279 33.3169 42.5155 31.256 41.1047C29.195 39.6938 27.0872 38.7112 24.9326 38.157C21.8412 37.25 19.101 36.1667 16.7122 34.907C14.2297 33.5969 12.3795 31.9845 11.1617 30.0698C9.94385 28.155 9.33494 26.1395 9.33494 24.0233C9.33494 22.0581 9.96727 20.0678 11.232 18.0523C12.4966 15.9864 13.9955 14.5 15.7286 13.593C16.6654 13.0891 18.2579 12.5601 20.5062 12.0058C22.8014 11.4012 24.4642 11.0988 25.4947 11.0988C26.853 11.0988 28.3519 11.2752 29.9913 11.6279C31.6307 11.9806 32.9656 12.4845 33.9961 13.1395C36.0571 14.3992 37.5794 15.5329 38.563 16.5407C39.5466 17.5484 40.0385 18.8081 40.0385 20.3198C40.0385 21.2267 39.7106 22.0329 39.0548 22.7384C38.4459 23.4438 37.3686 23.7965 35.8229 23.7965C35.4482 23.7965 35.0734 23.6202 34.6987 23.2674C34.324 22.9147 33.8556 22.3857 33.2935 21.6802C32.5441 20.6221 31.8181 19.9167 31.1155 19.564C30.4129 19.312 29.3824 19.0349 28.024 18.7326C26.7125 18.4302 25.5415 18.2791 24.5111 18.2791C23.3869 18.2791 22.2159 18.531 20.9981 19.0349C19.7802 19.5388 18.7497 20.2694 17.9066 21.2267C17.1104 22.1337 16.7122 23.1919 16.7122 24.4012C16.7122 25.4089 17.1338 26.2907 17.9769 27.0465C18.8668 27.7519 19.9207 28.3314 21.1386 28.7849C22.5438 29.3895 24.0661 29.9186 25.7055 30.3721C27.8601 31.0775 29.6166 31.7326 30.975 32.3372C32.3801 32.8915 33.7385 33.5969 35.05 34.4535C37.3452 35.9147 39.008 37.4264 40.0385 38.9884C41.0689 40.5 41.5842 42.6163 41.5842 45.3372Z" stroke="white" stroke-width="16" mask="url(#path-1-outside-1_20_5)"/>
<path d="M73.0973 33.7733C73.0973 35.9903 72.0434 37.0988 69.9357 37.0988C69.2331 37.0988 68.6476 36.9225 68.1792 36.5698C67.7108 36.2171 67.1955 35.688 66.6334 34.9826C65.2282 33.3198 64.0104 32.4884 62.9799 32.4884C61.6216 32.4884 60.2866 32.9167 58.9751 33.7733C57.7104 34.6298 56.68 35.8391 55.8837 37.4012C55.0874 38.9632 54.6893 40.7016 54.6893 42.6163C54.6893 44.7326 55.064 46.4961 55.8134 47.907C56.6097 49.3178 57.8276 50.5271 59.4669 51.5349C60.0759 51.8876 60.7785 52.1647 61.5747 52.3663C62.4179 52.5678 63.1439 52.6686 63.7528 52.6686C65.1111 52.6686 66.8208 52.0892 68.8818 50.9302C69.6312 50.5271 70.2635 50.2248 70.7788 50.0233C71.294 49.8217 71.8327 49.7209 72.3947 49.7209C72.91 49.7209 73.4955 49.9729 74.1512 50.4767C74.807 50.9806 75.1349 51.6105 75.1349 52.3663C75.1349 53.8779 74.4791 55.1628 73.1676 56.2209C71.8561 57.2287 70.2401 58.0097 68.3197 58.564C66.4461 59.0678 64.6428 59.3198 62.9097 59.3198C60.1461 59.3198 57.5699 58.6395 55.1811 57.2791C52.8391 55.9186 50.9655 54.0543 49.5603 51.686C48.1551 49.2674 47.4525 46.5465 47.4525 43.5233C47.4525 40.2985 48.1317 37.3508 49.4901 34.6802C50.8484 32.0097 52.6752 29.9186 54.9703 28.407C57.2655 26.8953 59.7714 26.1395 62.4881 26.1395C64.0338 26.1395 65.6264 26.4419 67.2658 27.0465C68.9052 27.6512 70.287 28.5329 71.4111 29.6919C72.5353 30.8508 73.0973 32.2112 73.0973 33.7733Z" stroke="white" stroke-width="16" mask="url(#path-1-outside-1_20_5)"/>
<path d="M81.3704 32.4884C80.1526 31.5814 79.5437 30.624 79.5437 29.6163C79.5437 28.9109 79.8247 28.2558 80.3868 27.6512C80.9489 27.0465 81.792 26.7442 82.9161 26.7442C84.2277 26.7442 85.3987 27.1221 86.4291 27.8779C87.5065 28.5833 88.2559 29.6163 88.6775 30.9767C89.7548 29.6163 90.9726 28.5329 92.331 27.7267C93.7362 26.9205 95.1648 26.5174 96.6168 26.5174C98.3499 26.5174 99.919 27.0213 101.324 28.0291C102.729 29.0368 103.432 30.3973 103.432 32.1105C103.432 33.0678 103.034 34.0504 102.238 35.0581C101.488 36.0659 100.715 36.5698 99.919 36.5698C99.4975 36.5698 99.1227 36.469 98.7949 36.2674C98.5138 36.0155 98.1625 35.6628 97.741 35.2093C97.2726 34.7054 96.8744 34.3527 96.5466 34.1512C96.2187 33.8992 95.844 33.7733 95.4224 33.7733C94.673 33.7733 93.9704 33.8992 93.3146 34.1512C92.6588 34.4031 92.2139 34.7054 91.9797 35.0581C91.2302 36.3178 90.6681 37.4516 90.2934 38.4593C89.9655 39.4671 89.8016 40.5504 89.8016 41.7093C89.8016 42.5659 89.7782 43.2461 89.7313 43.75L89.6611 48.0581C89.6611 48.7132 89.6845 49.4438 89.7313 50.25C89.7782 51.0562 89.825 51.6609 89.8719 52.064C90.0124 53.4244 90.0826 54.7345 90.0826 55.9942C90.0826 56.8508 89.7782 57.6066 89.1693 58.2616C88.5604 58.9167 87.8109 59.2442 86.921 59.2442C85.5158 59.2442 84.4853 58.9671 83.8295 58.4128C83.1738 57.8081 82.8459 56.7248 82.8459 55.1628L82.7756 50.3256C82.7288 49.3682 82.7054 48.0078 82.7054 46.2442L82.7756 41.2558C82.8693 38.8372 82.9161 36.8721 82.9161 35.3605C82.9161 34.8062 82.7991 34.3023 82.5649 33.8488C82.3775 33.3953 81.9794 32.9419 81.3704 32.4884Z" stroke="white" stroke-width="16" mask="url(#path-1-outside-1_20_5)"/>
<path d="M111.157 10.4942C112.797 10.6453 114.225 11.124 115.443 11.9302C116.661 12.686 117.27 13.845 117.27 15.407C117.27 16.5659 116.755 17.4981 115.724 18.2035C114.741 18.8585 113.546 19.186 112.141 19.186C110.783 19.186 109.846 18.8081 109.331 18.0523C108.815 17.2965 108.558 16.5155 108.558 15.7093C108.558 14.1977 108.698 12.938 108.979 11.9302C109.307 10.9225 110.033 10.4438 111.157 10.4942ZM116.778 46.1686C116.778 48.1337 116.825 49.9981 116.919 51.7616C117.059 53.4748 117.223 55.2132 117.41 56.9767C117.364 57.4806 117.012 58.0097 116.357 58.564C115.701 59.0678 115.115 59.3198 114.6 59.3198C113.71 59.3198 112.797 59.1434 111.86 58.7907C110.97 58.3876 110.431 57.9089 110.244 57.3547C109.963 55.7423 109.822 54.3062 109.822 53.0465C109.822 48.9147 109.705 44.2791 109.471 39.1395C109.284 34.6047 109.19 31.4302 109.19 29.6163C109.19 28.7093 109.612 27.9283 110.455 27.2733C111.298 26.6182 112.188 26.2907 113.125 26.2907C114.483 26.2907 115.42 26.6182 115.935 27.2733C116.497 27.9283 116.778 28.9612 116.778 30.3721V46.1686Z" stroke="white" stroke-width="16" mask="url(#path-1-outside-1_20_5)"/>
<path d="M126.956 33.0174C126.956 28.4826 126.886 24.8798 126.745 22.2093C126.651 20.6977 126.558 19.564 126.464 18.8081C126.23 14.8779 126.113 12.4341 126.113 11.4767C126.113 9.15891 127.19 8 129.345 8C130.703 8 131.616 8.37791 132.085 9.13372C132.6 9.88953 132.951 11.124 133.139 12.8372C133.607 16.314 133.841 20.3953 133.841 25.0814C133.841 27.1977 133.771 29.314 133.631 31.4302C134.474 30.0194 135.809 28.8605 137.635 27.9535C139.509 27.0465 141.219 26.593 142.764 26.593C144.872 26.593 146.629 27.0717 148.034 28.0291C149.486 28.936 150.914 30.2713 152.32 32.0349C153.116 33.2946 153.819 34.8062 154.427 36.5698C155.083 38.2829 155.411 39.7694 155.411 41.0291C155.411 43.1957 155.083 45.4884 154.427 47.907C153.819 50.2752 152.999 52.1143 151.968 53.4244C150.657 55.1376 149.158 56.4225 147.472 57.2791C145.832 58.1357 143.865 58.564 141.57 58.564C138.01 58.564 135.2 57.0019 133.139 53.8779C132.905 55.1376 132.389 56.3973 131.593 57.657C130.797 58.8663 129.883 59.4709 128.853 59.4709C128.01 59.4709 127.307 59.2442 126.745 58.7907C126.183 58.2868 125.902 57.5562 125.902 56.5988C125.902 56.2461 125.996 55.3643 126.183 53.9535C126.651 50.9302 126.886 48.0833 126.886 45.4128L126.956 33.0174ZM140.446 52.2907C141.523 52.2907 142.483 52.1395 143.326 51.8372C144.17 51.4845 145.106 50.9302 146.137 50.1744C146.933 49.6705 147.519 48.7132 147.893 47.3023C148.315 45.8915 148.526 44.3295 148.526 42.6163C148.526 39.9961 147.846 37.6531 146.488 35.5872C145.973 34.9826 145.294 34.4787 144.451 34.0756C143.607 33.6725 142.764 33.4709 141.921 33.4709C139.907 33.4709 138.151 34.0756 136.652 35.2849C135.2 36.4942 134.38 38.1822 134.193 40.3488C134.193 41.0039 134.169 41.5329 134.122 41.936L133.982 47.907C134.544 49.0659 135.457 50.0988 136.722 51.0058C137.987 51.8624 139.228 52.2907 140.446 52.2907Z" stroke="white" stroke-width="16" mask="url(#path-1-outside-1_20_5)"/>
<path d="M164.014 45.4128C164.014 42.5911 164.037 40.4496 164.084 38.9884L164.154 31.8081C164.154 28.8857 164.084 25.686 163.943 22.2093C163.896 21.1512 163.732 19.6899 163.451 17.8256C163.077 15.0039 162.889 12.8876 162.889 11.4767C162.889 9.15891 163.967 8 166.121 8C167.48 8 168.44 8.4031 169.002 9.2093C169.611 9.96511 170.032 11.1744 170.267 12.8372C170.735 16.314 170.969 20.3953 170.969 25.0814C170.969 26.4922 170.922 28.6085 170.829 31.4302C171.719 29.9186 172.866 28.7345 174.271 27.8779C175.723 27.0213 177.152 26.593 178.557 26.593C182.632 26.593 186.145 28.407 189.096 32.0349C189.893 33.2946 190.595 34.8062 191.204 36.5698C191.86 38.2829 192.188 39.7694 192.188 41.0291C192.188 43.2461 191.954 45.2868 191.485 47.1512C191.064 49.0155 190.291 50.8295 189.167 52.593C188.042 54.3566 186.614 55.7926 184.881 56.9012C183.194 58.0097 181.227 58.564 178.979 58.564C177.012 58.564 175.232 58.1357 173.639 57.2791C172.093 56.4225 170.852 55.2888 169.915 53.8779C169.681 55.1376 169.166 56.3973 168.37 57.657C167.573 58.8663 166.66 59.4709 165.629 59.4709C164.786 59.4709 164.084 59.2442 163.522 58.7907C162.96 58.2868 162.679 57.5562 162.679 56.5988C162.679 55.8934 162.819 55.0116 163.1 53.9535C163.381 52.4922 163.592 51.157 163.732 49.9477C163.92 48.688 164.014 47.1764 164.014 45.4128ZM177.222 52.2907C179.518 52.2907 181.438 51.4341 182.984 49.7209C184.529 47.9574 185.302 45.5892 185.302 42.6163C185.302 39.8954 184.623 37.5523 183.265 35.5872C182.796 34.9322 182.117 34.4031 181.227 34C180.384 33.5969 179.541 33.3954 178.698 33.3954C176.731 33.3954 175.068 34.0252 173.709 35.2849C172.351 36.4942 171.578 38.1822 171.391 40.3488C171.203 43.2713 171.11 45.7907 171.11 47.907C171.672 49.0659 172.515 50.0988 173.639 51.0058C174.81 51.8624 176.005 52.2907 177.222 52.2907Z" stroke="white" stroke-width="16" mask="url(#path-1-outside-1_20_5)"/>
<path d="M206.699 47.3023C206.699 49.2171 206.956 50.7035 207.471 51.7616C208.033 52.7694 208.736 53.2733 209.579 53.2733C210.048 53.2733 210.493 53.2481 210.914 53.1977C211.336 53.0969 211.757 53.0465 212.179 53.0465C212.647 53.0465 213.045 53.2985 213.373 53.8023C213.748 54.3062 213.935 54.8605 213.935 55.4651C213.935 56.6744 213.397 57.6318 212.319 58.3372C211.289 58.9923 209.884 59.3198 208.104 59.3198C206.839 59.3198 205.551 58.9167 204.239 58.1105C202.975 57.2539 201.921 55.9438 201.078 54.1802C200.235 52.3663 199.813 50.124 199.813 47.4535C199.813 41.7093 199.907 36.8469 200.094 32.8663C200.328 28.1298 200.445 22.1589 200.445 14.9535C200.445 12.686 200.563 11.0988 200.797 10.1919C201.078 9.48643 201.523 8.95736 202.132 8.60465C202.787 8.20155 203.467 8 204.169 8C204.872 8 205.481 8.12597 205.996 8.37791C206.558 8.62984 206.933 9.03294 207.12 9.58721C207.307 10.1919 207.425 10.7965 207.471 11.4012C207.565 11.9554 207.612 12.7616 207.612 13.8198C207.612 15.8857 207.542 17.876 207.401 19.7907C207.307 22.1085 207.261 23.7965 207.261 24.8547C206.886 33.7229 206.699 41.2054 206.699 47.3023Z" stroke="white" stroke-width="16" mask="url(#path-1-outside-1_20_5)"/>
<path d="M218.025 41.7093C218.025 38.6357 218.657 36.0911 219.922 34.0756C221.186 32.0097 222.943 30.0698 225.191 28.2558C225.847 27.7519 226.948 27.3236 228.493 26.9709C230.039 26.5678 231.397 26.3663 232.568 26.3663C233.974 26.3663 235.449 26.6938 236.995 27.3488C238.587 27.9535 239.875 28.6589 240.859 29.4651C242.592 30.8256 243.787 32.4128 244.442 34.2267C245.098 35.9903 245.426 38.1066 245.426 40.5756C245.426 41.6337 244.864 42.6667 243.74 43.6744C242.662 44.6318 241.491 45.1105 240.227 45.1105L237.557 45.0349C236.199 45.0349 234.255 45.0853 231.725 45.186L230.25 45.2616C229.219 45.3624 228.446 45.4128 227.931 45.4128C227.182 45.4128 226.151 45.312 224.84 45.1105C225.027 47.4787 225.847 49.343 227.299 50.7035C228.751 52.0136 230.32 52.6686 232.006 52.6686C234.957 52.6686 237.018 52.0388 238.189 50.7791C239.173 50.0233 239.829 49.5446 240.156 49.343C240.484 49.1415 241 49.0407 241.702 49.0407C242.452 49.0407 243.107 49.4186 243.669 50.1744C244.232 50.9302 244.513 51.686 244.513 52.4419C244.513 53.2985 244.021 54.1802 243.037 55.0872C242.1 55.9438 240.812 56.8508 239.173 57.8081C238.283 58.2112 237.065 58.564 235.519 58.8663C233.974 59.1686 232.686 59.3198 231.655 59.3198C230.016 59.3198 228.189 58.8159 226.175 57.8081C224.161 56.75 222.662 55.5911 221.678 54.3314C220.695 53.0717 219.828 51.283 219.079 48.9651C218.376 46.6473 218.025 44.2287 218.025 41.7093ZM232.006 39.6686C235.332 39.6686 237.768 39.5426 239.313 39.2907C239.22 37.8295 238.798 36.6453 238.049 35.7384C237.299 34.781 236.269 33.9748 234.957 33.3198C234.536 33.1182 234.161 32.9671 233.833 32.8663C233.505 32.7655 233.13 32.7151 232.709 32.7151C230.554 32.7151 228.728 33.345 227.229 34.6047C225.777 35.8643 224.91 37.4767 224.629 39.4419C226.971 39.593 229.43 39.6686 232.006 39.6686Z" stroke="white" stroke-width="16" mask="url(#path-1-outside-1_20_5)"/>
<path d="M261.839 54.8605C261.839 56.1202 261.371 57.3043 260.434 58.4128C259.497 59.4709 258.467 60 257.343 60C256.031 60 254.837 59.6221 253.759 58.8663C252.682 58.0601 252.143 57.0523 252.143 55.843C252.143 53.9283 252.471 52.5174 253.127 51.6105C253.83 50.7035 254.86 50.25 256.219 50.25C257.811 50.25 259.146 50.6783 260.223 51.5349C261.301 52.3411 261.839 53.4496 261.839 54.8605Z" stroke="white" stroke-width="16" mask="url(#path-1-outside-1_20_5)"/>
<path d="M272.806 10.4942C274.446 10.6453 275.851 11.124 277.022 11.9302C278.24 12.686 278.849 13.845 278.849 15.407C278.849 16.5659 278.357 17.4981 277.373 18.2035C276.39 18.8585 275.172 19.186 273.72 19.186C272.361 19.186 271.425 18.8081 270.909 18.0523C270.394 17.2965 270.137 16.5155 270.137 15.7093C270.137 14.2481 270.3 13.0136 270.628 12.0058C270.956 10.9477 271.682 10.4438 272.806 10.4942ZM271.401 41.7093V39.5174C271.401 36.9981 271.284 34.7054 271.05 32.6395C270.863 30.5233 270.745 29.2132 270.699 28.7093C270.745 28.155 271.097 27.626 271.753 27.1221C272.408 26.6182 272.994 26.3663 273.509 26.3663C274.399 26.3663 275.289 26.5678 276.179 26.9709C277.116 27.3236 277.701 27.7771 277.935 28.3314C278.17 30.1957 278.287 31.6318 278.287 32.6395C278.287 34.8566 278.38 38.4845 278.568 43.5233L278.638 46.4709L278.778 49.343C278.825 50.1492 278.872 51.1066 278.919 52.2151C278.966 53.3236 278.989 54.5833 278.989 55.9942C278.989 56.9516 278.544 57.7578 277.654 58.4128C276.811 59.0678 275.921 59.3954 274.984 59.3954C273.626 59.3954 272.666 59.0678 272.104 58.4128C271.589 57.7578 271.331 56.7248 271.331 55.314L271.401 41.7093Z" stroke="white" stroke-width="16" mask="url(#path-1-outside-1_20_5)"/>
<path d="M287.344 32.8663C286.688 32.7655 286.149 32.4632 285.728 31.9593C285.353 31.4554 285.166 30.8508 285.166 30.1453C285.166 29.7926 285.236 29.4147 285.376 29.0116C285.564 28.6085 285.821 28.2558 286.149 27.9535C286.758 27.3992 287.578 26.8702 288.608 26.3663C289.686 25.9128 290.458 25.3585 290.927 24.7035C291.395 24.0485 291.629 22.814 291.629 21C291.629 20.2442 291.583 19.5891 291.489 19.0349C291.442 18.4806 291.419 18.0523 291.419 17.75C291.419 16.6415 291.793 15.8101 292.543 15.2558C293.292 14.7015 294.159 14.4244 295.142 14.4244C296.36 14.4244 297.18 14.7519 297.602 15.407C298.07 16.062 298.304 17.2713 298.304 19.0349C298.304 20.7481 298.234 22.2345 298.093 23.4942C297.953 24.7035 297.648 25.7868 297.18 26.7442C297.836 26.7442 298.913 26.6938 300.412 26.593C302.473 26.4922 303.902 26.4419 304.698 26.4419C305.494 26.4419 306.197 26.6686 306.806 27.1221C307.414 27.5252 307.719 28.1047 307.719 28.8605C307.719 29.9186 307.508 30.6996 307.087 31.2035C306.665 31.7074 306.056 32.0349 305.26 32.186C303.339 32.7403 300.623 33.0678 297.11 33.1686C297.016 35.1337 296.969 37.2752 296.969 39.593C296.969 43.4729 297.18 46.4457 297.602 48.5116C297.883 50.124 298.351 51.3081 299.007 52.064C299.709 52.7694 300.74 53.1221 302.098 53.1221C302.801 53.1221 303.363 53.0213 303.784 52.8198C304.253 52.6182 304.51 52.4923 304.557 52.4419C305.119 52.0891 305.635 51.9128 306.103 51.9128C306.759 51.9128 307.227 52.1395 307.508 52.593C307.836 53.0465 308 53.6512 308 54.407C308 55.8178 307.297 57.0019 305.892 57.9593C304.487 58.8663 302.684 59.3198 300.482 59.3198C298 59.3198 295.892 58.5388 294.159 56.9767C292.473 55.3643 291.466 53.2481 291.138 50.6279C290.669 48.2597 290.435 44.9341 290.435 40.6512C290.435 38.7868 290.529 36.2926 290.716 33.1686L287.344 32.8663Z" stroke="white" stroke-width="16" mask="url(#path-1-outside-1_20_5)"/>
<defs>
<linearGradient id="paint0_linear_20_5" x1="158.011" y1="-13.4579" x2="158.011" y2="77.6539" gradientUnits="userSpaceOnUse">
<stop offset="0.276042" stop-color="#FFD500"/>
<stop offset="1" stop-color="#00CAFF"/>
</linearGradient>
<linearGradient id="paint1_linear_20_5" x1="158.011" y1="-13.4579" x2="158.011" y2="77.6539" gradientUnits="userSpaceOnUse">
<stop offset="0.276042" stop-color="#FFD500"/>
<stop offset="1" stop-color="#00CAFF"/>
</linearGradient>
<linearGradient id="paint2_linear_20_5" x1="158.011" y1="-13.4579" x2="158.011" y2="77.6539" gradientUnits="userSpaceOnUse">
<stop offset="0.276042" stop-color="#FFD500"/>
<stop offset="1" stop-color="#00CAFF"/>
</linearGradient>
<linearGradient id="paint3_linear_20_5" x1="158.011" y1="-13.4579" x2="158.011" y2="77.6539" gradientUnits="userSpaceOnUse">
<stop offset="0.276042" stop-color="#FFD500"/>
<stop offset="1" stop-color="#00CAFF"/>
</linearGradient>
<linearGradient id="paint4_linear_20_5" x1="158.011" y1="-13.4579" x2="158.011" y2="77.6539" gradientUnits="userSpaceOnUse">
<stop offset="0.276042" stop-color="#FFD500"/>
<stop offset="1" stop-color="#00CAFF"/>
</linearGradient>
<linearGradient id="paint5_linear_20_5" x1="158.011" y1="-13.4579" x2="158.011" y2="77.6539" gradientUnits="userSpaceOnUse">
<stop offset="0.276042" stop-color="#FFD500"/>
<stop offset="1" stop-color="#00CAFF"/>
</linearGradient>
<linearGradient id="paint6_linear_20_5" x1="158.011" y1="-13.4579" x2="158.011" y2="77.6539" gradientUnits="userSpaceOnUse">
<stop offset="0.276042" stop-color="#FFD500"/>
<stop offset="1" stop-color="#00CAFF"/>
</linearGradient>
<linearGradient id="paint7_linear_20_5" x1="158.011" y1="-13.4579" x2="158.011" y2="77.6539" gradientUnits="userSpaceOnUse">
<stop offset="0.276042" stop-color="#FFD500"/>
<stop offset="1" stop-color="#00CAFF"/>
</linearGradient>
<linearGradient id="paint8_linear_20_5" x1="158.011" y1="-13.4579" x2="158.011" y2="77.6539" gradientUnits="userSpaceOnUse">
<stop offset="0.276042" stop-color="#FFD500"/>
<stop offset="1" stop-color="#00CAFF"/>
</linearGradient>
<linearGradient id="paint9_linear_20_5" x1="158.011" y1="-13.4579" x2="158.011" y2="77.6539" gradientUnits="userSpaceOnUse">
<stop offset="0.276042" stop-color="#FFD500"/>
<stop offset="1" stop-color="#00CAFF"/>
</linearGradient>
<linearGradient id="paint10_linear_20_5" x1="158.011" y1="-13.4579" x2="158.011" y2="77.6539" gradientUnits="userSpaceOnUse">
<stop offset="0.276042" stop-color="#FFD500"/>
<stop offset="1" stop-color="#00CAFF"/>
</linearGradient>
</defs>
</svg>
