<svg width="317" height="61" viewBox="0 0 317 61" fill="none" xmlns="http://www.w3.org/2000/svg">
<mask id="path-1-outside-1_21_12" maskUnits="userSpaceOnUse" x="0.565918" y="0.00100708" width="316" height="61" fill="black">
<rect fill="white" x="0.565918" y="0.00100708" width="316" height="61"/>
<path d="M12.2409 50C11.7943 50 11.3923 49.8437 11.0349 49.531C10.7223 49.1737 10.5659 48.7717 10.5659 48.325V15.83C10.5659 15.3387 10.7223 14.9367 11.0349 14.624C11.3923 14.3113 11.7943 14.155 12.2409 14.155H24.0329C26.9809 14.155 29.7279 14.9143 32.2739 16.433C34.8646 17.9517 36.9416 20.051 38.5049 22.731C40.1129 25.411 40.9169 28.5153 40.9169 32.044C40.9169 35.394 40.2023 38.4313 38.7729 41.156C37.3883 43.836 35.4229 45.98 32.8769 47.588C30.3756 49.196 27.4276 50 24.0329 50H12.2409ZM13.9159 17.505V46.65H24.0329C26.8023 46.65 29.1919 46.0023 31.2019 44.707C33.2566 43.367 34.8199 41.6027 35.8919 39.414C37.0086 37.1807 37.5669 34.724 37.5669 32.044C37.5669 29.23 36.9416 26.7287 35.6909 24.54C34.4403 22.3513 32.7876 20.6317 30.7329 19.381C28.6783 18.1303 26.4449 17.505 24.0329 17.505H13.9159Z"/>
<path d="M61.5733 23.468C64.298 23.468 66.643 24.0933 68.6083 25.344C70.6183 26.55 72.1593 28.2027 73.2313 30.302C74.348 32.3567 74.9063 34.657 74.9063 37.203C74.9063 39.6597 74.348 41.8707 73.2313 43.836C72.1593 45.8013 70.6183 47.3647 68.6083 48.526C66.643 49.6873 64.298 50.268 61.5733 50.268C58.8933 50.268 56.5483 49.6873 54.5383 48.526C52.5283 47.3647 50.965 45.779 49.8483 43.769C48.7763 41.759 48.2403 39.5257 48.2403 37.069C48.2403 34.5677 48.7763 32.2897 49.8483 30.235C50.9203 28.1803 52.4613 26.55 54.4713 25.344C56.4813 24.0933 58.8487 23.468 61.5733 23.468ZM61.5733 26.818C59.5187 26.818 57.732 27.287 56.2133 28.225C54.7393 29.163 53.6003 30.4137 52.7963 31.977C51.9923 33.4957 51.5903 35.193 51.5903 37.069C51.5903 39.8383 52.4837 42.1833 54.2703 44.104C56.1017 45.98 58.536 46.918 61.5733 46.918C64.6107 46.918 67.0227 45.98 68.8093 44.104C70.6407 42.228 71.5563 39.9277 71.5563 37.203C71.5563 35.2823 71.1543 33.5403 70.3503 31.977C69.5463 30.4137 68.385 29.163 66.8663 28.225C65.3923 27.287 63.628 26.818 61.5733 26.818Z"/>
<path d="M95.0733 23.468C97.798 23.468 100.143 24.0933 102.108 25.344C104.118 26.55 105.659 28.2027 106.731 30.302C107.848 32.3567 108.406 34.657 108.406 37.203C108.406 39.6597 107.848 41.8707 106.731 43.836C105.659 45.8013 104.118 47.3647 102.108 48.526C100.143 49.6873 97.798 50.268 95.0733 50.268C92.3933 50.268 90.0483 49.6873 88.0383 48.526C86.0283 47.3647 84.465 45.779 83.3483 43.769C82.2763 41.759 81.7403 39.5257 81.7403 37.069C81.7403 34.5677 82.2763 32.2897 83.3483 30.235C84.4203 28.1803 85.9613 26.55 87.9713 25.344C89.9813 24.0933 92.3487 23.468 95.0733 23.468ZM95.0733 26.818C93.0187 26.818 91.232 27.287 89.7133 28.225C88.2393 29.163 87.1003 30.4137 86.2963 31.977C85.4923 33.4957 85.0903 35.193 85.0903 37.069C85.0903 39.8383 85.9837 42.1833 87.7703 44.104C89.6017 45.98 92.036 46.918 95.0733 46.918C98.1107 46.918 100.523 45.98 102.309 44.104C104.141 42.228 105.056 39.9277 105.056 37.203C105.056 35.2823 104.654 33.5403 103.85 31.977C103.046 30.4137 101.885 29.163 100.366 28.225C98.8923 27.287 97.128 26.818 95.0733 26.818Z"/>
<path d="M138.489 50C138.043 50 137.641 49.8437 137.283 49.531C136.971 49.1737 136.814 48.7717 136.814 48.325V45.511C135.519 46.8957 134.045 47.99 132.392 48.794C130.784 49.598 128.998 50 127.032 50C124.844 50 122.856 49.4863 121.069 48.459C119.327 47.4317 117.92 45.98 116.848 44.104C115.821 42.1833 115.307 39.95 115.307 37.404C115.307 34.724 115.866 32.3567 116.982 30.302C118.144 28.2473 119.707 26.6393 121.672 25.478C123.682 24.3167 125.938 23.736 128.439 23.736C130.047 23.736 131.521 23.9593 132.861 24.406C134.246 24.808 135.564 25.3887 136.814 26.148V14.088C136.814 13.5967 136.971 13.1947 137.283 12.882C137.641 12.5693 138.043 12.413 138.489 12.413C138.981 12.413 139.383 12.5693 139.695 12.882C140.008 13.1947 140.164 13.5967 140.164 14.088V48.325C140.164 48.7717 140.008 49.1737 139.695 49.531C139.383 49.8437 138.981 50 138.489 50ZM127.032 46.65C129.266 46.65 131.164 46.0693 132.727 44.908C134.335 43.7467 135.698 42.2503 136.814 40.419V30.168C135.564 29.1853 134.268 28.426 132.928 27.89C131.633 27.354 130.137 27.086 128.439 27.086C126.563 27.086 124.888 27.5327 123.414 28.426C121.94 29.3193 120.779 30.5477 119.93 32.111C119.082 33.6297 118.657 35.394 118.657 37.404C118.657 40.1287 119.439 42.362 121.002 44.104C122.61 45.8013 124.62 46.65 127.032 46.65Z"/>
<path d="M151.948 14.088C151.948 13.5967 152.105 13.1947 152.417 12.882C152.775 12.5693 153.177 12.413 153.623 12.413C154.115 12.413 154.517 12.5693 154.829 12.882C155.142 13.1947 155.298 13.5967 155.298 14.088V48.325C155.298 48.7717 155.142 49.1737 154.829 49.531C154.517 49.8437 154.115 50 153.623 50C153.177 50 152.775 49.8437 152.417 49.531C152.105 49.1737 151.948 48.7717 151.948 48.325V14.088Z"/>
<path d="M178.978 50C174.69 50 171.228 48.8833 168.593 46.65C166.002 44.4167 164.707 41.2677 164.707 37.203C164.707 34.4783 165.287 32.111 166.449 30.101C167.61 28.091 169.151 26.5277 171.072 25.411C173.037 24.2943 175.203 23.736 177.571 23.736C179.938 23.736 181.926 24.205 183.534 25.143C185.142 26.081 186.348 27.2423 187.152 28.627C188 30.0117 188.425 31.374 188.425 32.714C188.425 34.322 187.911 35.7067 186.884 36.868C185.901 38.0293 184.025 38.61 181.256 38.61H168.124C168.481 41.29 169.642 43.3 171.608 44.64C173.618 45.98 176.074 46.65 178.978 46.65C180.094 46.65 181.099 46.5607 181.993 46.382C182.931 46.2033 183.645 46.0247 184.137 45.846C184.628 45.6673 184.941 45.5557 185.075 45.511C185.253 45.4663 185.387 45.444 185.477 45.444C185.923 45.444 186.303 45.6227 186.616 45.98C186.973 46.2927 187.152 46.6723 187.152 47.119C187.152 47.8783 186.794 48.392 186.08 48.66C185.142 49.0173 184.047 49.33 182.797 49.598C181.546 49.866 180.273 50 178.978 50ZM177.571 27.086C175.203 27.086 173.149 27.8453 171.407 29.364C169.665 30.838 168.593 32.8033 168.191 35.26H181.323C183.869 35.26 185.142 34.4113 185.142 32.714C185.142 31.3293 184.449 30.0563 183.065 28.895C181.68 27.689 179.849 27.086 177.571 27.086Z"/>
<path d="M199.611 50C199.164 50 198.762 49.8437 198.405 49.531C198.092 49.1737 197.936 48.7717 197.936 48.325V25.411C197.936 24.9197 198.092 24.5177 198.405 24.205C198.762 23.8923 199.164 23.736 199.611 23.736C200.102 23.736 200.504 23.8923 200.817 24.205C201.13 24.5177 201.286 24.9197 201.286 25.411V29.364C203.028 27.5327 204.882 26.148 206.847 25.21C208.812 24.272 210.711 23.803 212.542 23.803C213.033 23.803 213.413 23.9593 213.681 24.272C213.994 24.54 214.15 24.8973 214.15 25.344C214.15 26.3713 213.659 26.952 212.676 27.086C210.085 27.3987 207.897 28.225 206.11 29.565C204.323 30.905 202.715 32.647 201.286 34.791V48.325C201.286 48.7717 201.13 49.1737 200.817 49.531C200.504 49.8437 200.102 50 199.611 50Z"/>
<path d="M236.508 27.622C236.062 27.488 235.28 27.3317 234.163 27.153C233.091 26.9743 231.908 26.885 230.612 26.885C228.424 26.885 226.726 27.2647 225.52 28.024C224.314 28.7833 223.711 29.7213 223.711 30.838C223.711 31.8207 224.203 32.6247 225.185 33.25C226.213 33.8307 227.888 34.2327 230.21 34.456L232.89 34.724C235.168 34.9473 236.955 35.461 238.25 36.265C239.546 37.069 240.461 38.0293 240.997 39.146C241.533 40.218 241.801 41.357 241.801 42.563C241.801 43.769 241.489 44.975 240.863 46.181C240.238 47.3423 239.144 48.325 237.58 49.129C236.062 49.8883 233.873 50.268 231.014 50.268C229.362 50.268 227.664 50.1117 225.922 49.799C224.18 49.4417 222.528 48.928 220.964 48.258C220.294 47.9453 219.959 47.4093 219.959 46.65C219.959 46.248 220.138 45.8907 220.495 45.578C220.853 45.2207 221.255 45.042 221.701 45.042C221.791 45.042 221.947 45.0867 222.17 45.176C222.394 45.2653 222.796 45.4217 223.376 45.645C224.225 45.9577 225.342 46.248 226.726 46.516C228.111 46.784 229.54 46.918 231.014 46.918C233.426 46.918 235.258 46.516 236.508 45.712C237.804 44.8633 238.451 43.8137 238.451 42.563C238.451 41.4017 238.005 40.419 237.111 39.615C236.218 38.7663 234.722 38.2527 232.622 38.074L229.942 37.806C227.307 37.538 225.297 37.0467 223.912 36.332C222.528 35.5727 221.59 34.7017 221.098 33.719C220.607 32.7363 220.361 31.7537 220.361 30.771C220.361 29.6543 220.652 28.56 221.232 27.488C221.858 26.3713 222.907 25.4333 224.381 24.674C225.9 23.9147 227.977 23.535 230.612 23.535C232.131 23.535 233.538 23.6467 234.833 23.87C236.173 24.0487 237.357 24.2943 238.384 24.607C238.742 24.6517 239.032 24.8527 239.255 25.21C239.479 25.5227 239.59 25.8577 239.59 26.215C239.59 26.7063 239.412 27.1083 239.054 27.421C238.742 27.7337 238.362 27.89 237.915 27.89C237.647 27.89 237.178 27.8007 236.508 27.622Z"/>
<path d="M253.137 43.099C254.031 43.099 254.768 43.4563 255.348 44.171C255.929 44.841 256.219 45.6897 256.219 46.717C256.219 47.9677 255.929 48.8833 255.348 49.464C254.812 50.0447 254.098 50.335 253.204 50.335C252.49 50.335 251.797 50.0447 251.127 49.464C250.457 48.8833 250.122 47.9677 250.122 46.717C250.122 45.645 250.39 44.774 250.926 44.104C251.462 43.434 252.199 43.099 253.137 43.099Z"/>
<path d="M268.32 10.001C269.079 10.001 269.727 10.3137 270.263 10.939C270.799 11.5197 271.067 12.3237 271.067 13.351C271.067 14.3783 270.799 15.16 270.263 15.696C269.727 16.232 269.102 16.5 268.387 16.5C267.583 16.5 266.891 16.232 266.31 15.696C265.774 15.1153 265.506 14.3337 265.506 13.351C265.506 12.3237 265.774 11.5197 266.31 10.939C266.846 10.3137 267.516 10.001 268.32 10.001ZM266.712 25.411C266.712 24.9197 266.868 24.5177 267.181 24.205C267.538 23.8923 267.94 23.736 268.387 23.736C268.878 23.736 269.28 23.8923 269.593 24.205C269.906 24.5177 270.062 24.9197 270.062 25.411V48.325C270.062 48.7717 269.906 49.1737 269.593 49.531C269.28 49.8437 268.878 50 268.387 50C267.94 50 267.538 49.8437 267.181 49.531C266.868 49.1737 266.712 48.7717 266.712 48.325V25.411Z"/>
<path d="M292.736 23.468C295.461 23.468 297.806 24.0933 299.771 25.344C301.781 26.55 303.322 28.2027 304.394 30.302C305.511 32.3567 306.069 34.657 306.069 37.203C306.069 39.6597 305.511 41.8707 304.394 43.836C303.322 45.8013 301.781 47.3647 299.771 48.526C297.806 49.6873 295.461 50.268 292.736 50.268C290.056 50.268 287.711 49.6873 285.701 48.526C283.691 47.3647 282.128 45.779 281.011 43.769C279.939 41.759 279.403 39.5257 279.403 37.069C279.403 34.5677 279.939 32.2897 281.011 30.235C282.083 28.1803 283.624 26.55 285.634 25.344C287.644 24.0933 290.012 23.468 292.736 23.468ZM292.736 26.818C290.682 26.818 288.895 27.287 287.376 28.225C285.902 29.163 284.763 30.4137 283.959 31.977C283.155 33.4957 282.753 35.193 282.753 37.069C282.753 39.8383 283.647 42.1833 285.433 44.104C287.265 45.98 289.699 46.918 292.736 46.918C295.774 46.918 298.186 45.98 299.972 44.104C301.804 42.228 302.719 39.9277 302.719 37.203C302.719 35.2823 302.317 33.5403 301.513 31.977C300.709 30.4137 299.548 29.163 298.029 28.225C296.555 27.287 294.791 26.818 292.736 26.818Z"/>
<path fill-rule="evenodd" clip-rule="evenodd" d="M268.32 12.001C268.116 12.001 267.995 12.0461 267.829 12.2406L267.805 12.2685L267.78 12.2956C267.677 12.4066 267.506 12.6711 267.506 13.351C267.506 13.8812 267.625 14.1419 267.733 14.2841C267.917 14.4323 268.11 14.5 268.387 14.5C268.537 14.5 268.663 14.468 268.849 14.2818C268.892 14.2386 269.067 14.0415 269.067 13.351C269.067 12.6711 268.896 12.4066 268.794 12.2956L268.769 12.2685L268.745 12.2406C268.552 12.0161 268.442 12.001 268.32 12.001ZM264.815 9.60996C265.718 8.57116 266.928 8.00101 268.32 8.00101C269.705 8.00101 270.881 8.60058 271.758 9.61046C272.709 10.6566 273.067 11.9885 273.067 13.351C273.067 14.7152 272.706 16.0814 271.677 17.1102C270.792 17.996 269.667 18.5 268.387 18.5C267.09 18.5 265.911 18.0492 264.954 17.1656L264.895 17.1113L264.841 17.0526C263.886 16.0181 263.506 14.7085 263.506 13.351C263.506 11.9882 263.865 10.6561 264.815 9.60996ZM135.034 49.5969C135.199 50.0548 135.452 50.4751 135.778 50.848L135.866 50.9484L135.966 51.0362C136.663 51.646 137.526 52 138.489 52C139.447 52 140.378 51.6763 141.11 50.9452L141.157 50.8981L141.2 50.848C141.81 50.1511 142.164 49.2883 142.164 48.325V14.088C142.164 13.1308 141.841 12.1988 141.11 11.4678C140.378 10.7367 139.447 10.413 138.489 10.413C137.526 10.413 136.663 10.767 135.966 11.3769L135.916 11.4207L135.869 11.4678C135.138 12.1989 134.814 13.1308 134.814 14.088V22.952C134.368 22.7826 133.916 22.6306 133.456 22.4962C131.897 21.9814 130.219 21.736 128.439 21.736C125.615 21.736 123.009 22.3956 120.672 23.7463L120.663 23.7512L120.655 23.7562C118.377 25.102 116.569 26.969 115.241 29.3179L115.233 29.3324L115.225 29.347C113.927 31.7351 113.307 34.4396 113.307 37.404C113.307 40.2234 113.878 42.791 115.085 45.0473L115.098 45.072L115.112 45.0963C116.344 47.2529 117.991 48.9656 120.053 50.1817L120.063 50.1873L120.072 50.1928C122.181 51.4054 124.516 52 127.032 52C129.275 52 131.369 51.5399 133.277 50.5879C133.884 50.2918 134.47 49.9613 135.034 49.5969ZM151.1 11.3769C151.797 10.767 152.66 10.413 153.623 10.413C154.581 10.413 155.513 10.7367 156.244 11.4678C156.975 12.1989 157.298 13.1309 157.298 14.088V48.325C157.298 49.2883 156.944 50.1511 156.335 50.848L156.291 50.8981L156.244 50.9452C155.513 51.6763 154.581 52 153.623 52C152.66 52 151.797 51.646 151.1 51.0362L151 50.9484L150.912 50.848C150.302 50.1511 149.948 49.2883 149.948 48.325V14.088C149.948 13.1309 150.272 12.1989 151.003 11.4678L151.05 11.4207L151.1 11.3769ZM9.71791 13.1189C10.4148 12.509 11.2776 12.155 12.2409 12.155H24.0329C27.3412 12.155 30.4397 13.0117 33.2919 14.7114C36.1825 16.4074 38.4978 18.7534 40.2263 21.7127C42.0396 24.7396 42.9169 28.2052 42.9169 32.044C42.9169 35.6861 42.1377 39.0449 40.5468 42.0797C39.0005 45.0703 36.794 47.478 33.9516 49.2748C31.0853 51.1154 27.7524 52 24.0329 52H12.2409C11.2776 52 10.4148 51.646 9.71791 51.0362L9.61757 50.9484L9.52976 50.848C8.91995 50.1511 8.56592 49.2883 8.56592 48.325V15.83C8.56592 14.8728 8.88963 13.9409 9.62071 13.2098L9.66779 13.1627L9.71791 13.1189ZM15.9159 19.505V44.65H24.0329C26.4778 44.65 28.4764 44.0828 30.114 43.0288C31.8665 41.8847 33.1842 40.3954 34.0958 38.5343L34.0994 38.5269L34.1031 38.5196C35.0708 36.5841 35.5669 34.4368 35.5669 32.044C35.5669 29.5367 35.013 27.3848 33.9544 25.5323C32.8633 23.6228 31.4446 22.1556 29.693 21.0894C27.9526 20.03 26.0792 19.505 24.0329 19.505H15.9159ZM53.4286 23.6373C55.7981 22.1668 58.5386 21.468 61.5733 21.468C64.603 21.468 67.3272 22.1647 69.6597 23.6425C71.9746 25.0368 73.7638 26.957 75.0007 29.3694C76.2824 31.7369 76.9063 34.3627 76.9063 37.203C76.9063 39.9689 76.2755 42.5202 74.979 44.8086C73.7262 47.099 71.9239 48.9184 69.617 50.253C67.2906 51.6253 64.5825 52.268 61.5733 52.268C58.597 52.268 55.8963 51.6204 53.5378 50.2577C51.2175 48.9171 49.3943 47.07 48.1 44.7403L48.0917 44.7253L48.0836 44.7102C46.8452 42.3881 46.2403 39.8275 46.2403 37.069C46.2403 34.2717 46.8425 31.6725 48.0752 29.3099C49.3173 26.9292 51.1129 25.0299 53.4286 23.6373ZM86.9286 23.6373C89.298 22.1669 92.0386 21.468 95.0733 21.468C98.103 21.468 100.827 22.1647 103.16 23.6425C105.475 25.0369 107.264 26.9572 108.501 29.3697C109.782 31.7371 110.406 34.3628 110.406 37.203C110.406 39.969 109.775 42.5205 108.479 44.809C107.226 47.0992 105.424 48.9186 103.117 50.2532C100.79 51.6254 98.0825 52.268 95.0733 52.268C92.097 52.268 89.3962 51.6204 87.0378 50.2577C84.7175 48.9171 82.8943 47.07 81.6 44.7403L81.5917 44.7253L81.5836 44.7102C80.3452 42.3881 79.7403 39.8275 79.7403 37.069C79.7403 34.2717 80.3425 31.6725 81.5752 29.3099C82.8173 26.9292 84.6129 25.0299 86.9286 23.6373ZM284.591 23.6374C286.961 22.1669 289.702 21.468 292.736 21.468C295.766 21.468 298.49 22.1648 300.823 23.6427C303.138 25.037 304.927 26.9571 306.164 29.3695C307.446 31.737 308.069 34.3627 308.069 37.203C308.069 39.9691 307.439 42.5205 306.142 44.809C304.889 47.0992 303.087 48.9183 300.78 50.2529C298.454 51.6253 295.746 52.268 292.736 52.268C289.76 52.268 287.059 51.6204 284.701 50.2577C282.381 48.9171 280.557 47.07 279.263 44.7403L279.255 44.7253L279.247 44.7102C278.008 42.3881 277.403 39.8275 277.403 37.069C277.403 34.2717 278.006 31.6725 279.238 29.3099C280.48 26.9292 282.276 25.0301 284.591 23.6374ZM223.487 22.8852C225.395 21.9312 227.821 21.535 230.612 21.535C232.213 21.535 233.723 21.6516 235.135 21.8926C236.489 22.0746 237.726 22.3258 238.837 22.6547C239.769 22.8328 240.466 23.4009 240.918 24.097C241.343 24.7112 241.59 25.43 241.59 26.215C241.59 27.2384 241.196 28.179 240.421 28.8817C239.736 29.5435 238.864 29.89 237.915 29.89C237.352 29.89 236.647 29.729 235.993 29.5545L235.963 29.5465L235.934 29.5377C235.628 29.4459 234.965 29.3067 233.847 29.1279L233.834 29.1258C232.889 28.9683 231.818 28.885 230.612 28.885C228.614 28.885 227.345 29.2386 226.586 29.7165C225.779 30.2247 225.711 30.5998 225.711 30.838C225.711 30.9967 225.728 31.2124 226.214 31.5336C226.875 31.8905 228.189 32.2525 230.402 32.4652L230.409 32.4659L233.085 32.7335L233.087 32.7337C235.529 32.9733 237.652 33.5397 239.305 34.5657C240.844 35.5211 242.057 36.7408 242.793 38.2657C243.464 39.6132 243.801 41.0538 243.801 42.563C243.801 44.1281 243.393 45.6476 242.639 47.1016L242.632 47.1155L242.624 47.1292C241.753 48.7475 240.3 49.9792 238.495 50.9076L238.485 50.9128L238.475 50.9179C236.55 51.8802 233.998 52.268 231.014 52.268C229.235 52.268 227.419 52.0997 225.569 51.7676L225.545 51.7632L225.52 51.7582C223.652 51.375 221.869 50.8219 220.176 50.0963L220.147 50.0838L220.118 50.0704C219.494 49.7789 218.92 49.3296 218.514 48.6815C218.112 48.0368 217.959 47.3284 217.959 46.65C217.959 45.5917 218.449 44.7319 219.128 44.1178C219.8 43.4651 220.677 43.042 221.701 43.042C222.025 43.042 222.299 43.1135 222.435 43.1525C222.602 43.2001 222.765 43.2598 222.913 43.3191C223.121 43.4021 223.507 43.5523 224.08 43.773C224.787 44.0323 225.784 44.2965 227.106 44.5524C228.36 44.7951 229.662 44.918 231.014 44.918C233.252 44.918 234.634 44.5364 235.42 44.0341C236.298 43.4568 236.451 42.9734 236.451 42.563C236.451 41.9907 236.262 41.5413 235.773 41.1016L235.753 41.0836L235.734 41.065C235.333 40.684 234.391 40.2318 232.453 40.0668L232.438 40.0656L229.74 39.7957C227.005 39.5176 224.706 38.9922 222.995 38.1092L222.973 38.0977L222.951 38.0856C221.359 37.2126 220.046 36.0873 219.309 34.6134C218.696 33.3862 218.361 32.0992 218.361 30.771C218.361 29.2918 218.749 27.8725 219.474 26.5354L219.48 26.5231L219.487 26.5108C220.354 24.9636 221.744 23.7826 223.465 22.8961L223.476 22.8905L223.487 22.8852ZM170.084 23.6721C172.365 22.3761 174.874 21.736 177.571 21.736C180.198 21.736 182.555 22.2567 184.541 23.4154C186.392 24.495 187.865 25.8819 188.869 27.6022C189.862 29.2284 190.425 30.9412 190.425 32.714C190.425 34.7831 189.75 36.6386 188.396 38.177C186.814 40.0305 184.155 40.61 181.256 40.61H170.728C171.188 41.6176 171.861 42.3899 172.726 42.9817C174.345 44.0581 176.393 44.65 178.978 44.65C179.991 44.65 180.861 44.5687 181.601 44.4208L181.61 44.419L181.619 44.4173C182.522 44.2452 183.113 44.0901 183.453 43.9664C183.936 43.7907 184.277 43.6687 184.442 43.6136L184.515 43.5894L184.59 43.5707C184.797 43.519 185.129 43.444 185.477 43.444C186.493 43.444 187.375 43.8631 188.031 44.5642C188.733 45.2211 189.152 46.1025 189.152 47.119C189.152 47.8185 188.983 48.5578 188.526 49.2159C188.07 49.8714 187.438 50.2857 186.787 50.5308C185.733 50.9319 184.539 51.2701 183.216 51.5536C181.826 51.8515 180.412 52 178.978 52C174.334 52 170.377 50.7839 167.3 48.1758L167.293 48.1703L167.287 48.1648C164.172 45.4793 162.707 41.729 162.707 37.203C162.707 34.1886 163.352 31.4638 164.717 29.1005C166.045 26.8025 167.831 24.982 170.067 23.682L170.075 23.677L170.084 23.6721ZM203.266 25.0017C203.185 24.1909 202.858 23.4171 202.231 22.7908C201.5 22.0597 200.568 21.736 199.611 21.736C198.648 21.736 197.785 22.09 197.088 22.6999L197.038 22.7437L196.991 22.7908C196.26 23.5218 195.936 24.4538 195.936 25.411V48.325C195.936 49.2883 196.29 50.1511 196.9 50.848L196.988 50.9484L197.088 51.0362C197.785 51.646 198.648 52 199.611 52C200.568 52 201.5 51.6763 202.231 50.9452L202.278 50.8981L202.322 50.848C202.932 50.1511 203.286 49.2883 203.286 48.325V35.4096C204.518 33.6562 205.863 32.2504 207.31 31.165C208.772 30.0687 210.614 29.3494 212.916 29.0716L212.931 29.0697L212.946 29.0677C213.775 28.9547 214.656 28.6125 215.308 27.8419C215.952 27.081 216.15 26.1642 216.15 25.344C216.15 24.4169 215.815 23.5275 215.096 22.8551C214.385 22.0984 213.449 21.803 212.542 21.803C210.362 21.803 208.17 22.3627 205.986 23.405C205.049 23.8522 204.142 24.3855 203.266 25.0017ZM265.864 22.6999C266.561 22.09 267.424 21.736 268.387 21.736C269.344 21.736 270.276 22.0597 271.007 22.7908C271.738 23.5218 272.062 24.4538 272.062 25.411V48.325C272.062 49.2884 271.708 50.1511 271.098 50.848L271.054 50.8981L271.007 50.9452C270.276 51.6763 269.344 52 268.387 52C267.424 52 266.561 51.646 265.864 51.0362L265.764 50.9484L265.676 50.848C265.066 50.1511 264.712 49.2883 264.712 48.325V25.411C264.712 24.4539 265.036 23.5219 265.767 22.7908L265.814 22.7437L265.864 22.6999ZM57.2756 29.9197C56.1085 30.6651 55.2156 31.6459 54.5749 32.8917L54.5695 32.9023L54.5639 32.9128C53.9262 34.1173 53.5903 35.4886 53.5903 37.069C53.5903 39.355 54.3072 41.1989 55.7182 42.724C57.1113 44.1419 58.9924 44.918 61.5733 44.918C64.1659 44.918 66.0172 44.1358 67.3611 42.7247L67.3696 42.7158L67.3782 42.7069C68.8292 41.2205 69.5563 39.4284 69.5563 37.203C69.5563 35.5705 69.2171 34.1465 68.5718 32.8917C67.9369 31.6572 67.0294 30.6765 65.8153 29.9266L65.8039 29.9195L65.7926 29.9123C64.6924 29.2122 63.3157 28.818 61.5733 28.818C59.8383 28.818 58.4309 29.2092 57.2756 29.9197ZM90.7757 29.9196C89.6085 30.665 88.7156 31.6459 88.0749 32.8917L88.0695 32.9023L88.0639 32.9128C87.4262 34.1173 87.0903 35.4886 87.0903 37.069C87.0903 39.3549 87.8072 41.1988 89.2181 42.7239C90.6112 44.1419 92.4923 44.918 95.0733 44.918C97.6659 44.918 99.5172 44.1358 100.861 42.7247L100.87 42.7158L100.878 42.7069C102.329 41.2205 103.056 39.4284 103.056 37.203C103.056 35.5705 102.717 34.1465 102.072 32.8917C101.437 31.6572 100.529 30.6765 99.3153 29.9266L99.3039 29.9195L99.2926 29.9123C98.1924 29.2122 96.8157 28.818 95.0733 28.818C93.3384 28.818 91.931 29.2091 90.7757 29.9196ZM288.439 29.9196C287.272 30.665 286.379 31.6459 285.738 32.8917L285.733 32.9023L285.727 32.9128C285.089 34.1173 284.753 35.4886 284.753 37.069C284.753 39.355 285.47 41.199 286.881 42.7242C288.275 44.142 290.156 44.918 292.736 44.918C295.329 44.918 297.18 44.1358 298.524 42.7247L298.533 42.7158L298.541 42.7069C299.992 41.2205 300.719 39.4284 300.719 37.203C300.719 35.5705 300.38 34.1465 299.735 32.8917C299.1 31.6572 298.193 30.6765 296.978 29.9266L296.967 29.9195L296.956 29.9123C295.856 29.2122 294.479 28.818 292.736 28.818C291.001 28.818 289.594 29.2091 288.439 29.9196ZM128.439 29.086C126.895 29.086 125.585 29.4491 124.451 30.1364C123.29 30.84 122.373 31.8029 121.688 33.0652L121.682 33.076L121.676 33.0866C121.019 34.2636 120.657 35.682 120.657 37.404C120.657 39.7099 121.303 41.435 122.473 42.7482C123.686 44.0197 125.16 44.65 127.032 44.65C128.902 44.65 130.365 44.1711 131.535 43.3025L131.545 43.2945L131.556 43.2867C132.799 42.3894 133.886 41.2477 134.814 39.8391V31.1757C133.947 30.5745 133.071 30.101 132.186 29.747L132.175 29.7426L132.164 29.738C131.156 29.3211 129.928 29.086 128.439 29.086ZM177.571 29.086C175.674 29.086 174.089 29.6788 172.721 30.8716L172.71 30.8812L172.699 30.8908C171.925 31.5454 171.313 32.327 170.869 33.26H181.323C182.437 33.26 182.922 33.0629 183.078 32.9594C183.1 32.9448 183.111 32.9346 183.116 32.9301L183.118 32.925C183.12 32.9189 183.123 32.9081 183.126 32.8917C183.134 32.8587 183.142 32.8015 183.142 32.714C183.142 32.09 182.859 31.333 181.78 30.4274L181.765 30.4154L181.751 30.4032C180.812 29.5854 179.486 29.086 177.571 29.086ZM253.137 45.099C252.742 45.099 252.606 45.2062 252.488 45.3534C252.301 45.5878 252.122 45.9832 252.122 46.717C252.122 47.6343 252.363 47.8881 252.437 47.9526C252.834 48.2968 253.079 48.335 253.204 48.335C253.62 48.335 253.773 48.2224 253.879 48.1074L253.906 48.0781L253.934 48.0498C253.983 48.0007 254.219 47.7097 254.219 46.717C254.219 46.09 254.053 45.7304 253.837 45.4809L253.816 45.4569L253.796 45.4322C253.582 45.1683 253.407 45.099 253.137 45.099ZM249.365 42.8546C250.319 41.6619 251.656 41.099 253.137 41.099C254.643 41.099 255.935 41.7353 256.88 42.8852C257.811 43.9712 258.219 45.2999 258.219 46.717C258.219 48.2126 257.881 49.7394 256.791 50.8494C255.828 51.8756 254.563 52.335 253.204 52.335C251.901 52.335 250.76 51.7926 249.817 50.9754C248.552 49.8786 248.122 48.301 248.122 46.717C248.122 45.3068 248.48 43.9602 249.365 42.8546Z"/>
</mask>
<path d="M12.2409 50C11.7943 50 11.3923 49.8437 11.0349 49.531C10.7223 49.1737 10.5659 48.7717 10.5659 48.325V15.83C10.5659 15.3387 10.7223 14.9367 11.0349 14.624C11.3923 14.3113 11.7943 14.155 12.2409 14.155H24.0329C26.9809 14.155 29.7279 14.9143 32.2739 16.433C34.8646 17.9517 36.9416 20.051 38.5049 22.731C40.1129 25.411 40.9169 28.5153 40.9169 32.044C40.9169 35.394 40.2023 38.4313 38.7729 41.156C37.3883 43.836 35.4229 45.98 32.8769 47.588C30.3756 49.196 27.4276 50 24.0329 50H12.2409ZM13.9159 17.505V46.65H24.0329C26.8023 46.65 29.1919 46.0023 31.2019 44.707C33.2566 43.367 34.8199 41.6027 35.8919 39.414C37.0086 37.1807 37.5669 34.724 37.5669 32.044C37.5669 29.23 36.9416 26.7287 35.6909 24.54C34.4403 22.3513 32.7876 20.6317 30.7329 19.381C28.6783 18.1303 26.4449 17.505 24.0329 17.505H13.9159Z" fill="url(#paint0_linear_21_12)"/>
<path d="M61.5733 23.468C64.298 23.468 66.643 24.0933 68.6083 25.344C70.6183 26.55 72.1593 28.2027 73.2313 30.302C74.348 32.3567 74.9063 34.657 74.9063 37.203C74.9063 39.6597 74.348 41.8707 73.2313 43.836C72.1593 45.8013 70.6183 47.3647 68.6083 48.526C66.643 49.6873 64.298 50.268 61.5733 50.268C58.8933 50.268 56.5483 49.6873 54.5383 48.526C52.5283 47.3647 50.965 45.779 49.8483 43.769C48.7763 41.759 48.2403 39.5257 48.2403 37.069C48.2403 34.5677 48.7763 32.2897 49.8483 30.235C50.9203 28.1803 52.4613 26.55 54.4713 25.344C56.4813 24.0933 58.8487 23.468 61.5733 23.468ZM61.5733 26.818C59.5187 26.818 57.732 27.287 56.2133 28.225C54.7393 29.163 53.6003 30.4137 52.7963 31.977C51.9923 33.4957 51.5903 35.193 51.5903 37.069C51.5903 39.8383 52.4837 42.1833 54.2703 44.104C56.1017 45.98 58.536 46.918 61.5733 46.918C64.6107 46.918 67.0227 45.98 68.8093 44.104C70.6407 42.228 71.5563 39.9277 71.5563 37.203C71.5563 35.2823 71.1543 33.5403 70.3503 31.977C69.5463 30.4137 68.385 29.163 66.8663 28.225C65.3923 27.287 63.628 26.818 61.5733 26.818Z" fill="url(#paint1_linear_21_12)"/>
<path d="M95.0733 23.468C97.798 23.468 100.143 24.0933 102.108 25.344C104.118 26.55 105.659 28.2027 106.731 30.302C107.848 32.3567 108.406 34.657 108.406 37.203C108.406 39.6597 107.848 41.8707 106.731 43.836C105.659 45.8013 104.118 47.3647 102.108 48.526C100.143 49.6873 97.798 50.268 95.0733 50.268C92.3933 50.268 90.0483 49.6873 88.0383 48.526C86.0283 47.3647 84.465 45.779 83.3483 43.769C82.2763 41.759 81.7403 39.5257 81.7403 37.069C81.7403 34.5677 82.2763 32.2897 83.3483 30.235C84.4203 28.1803 85.9613 26.55 87.9713 25.344C89.9813 24.0933 92.3487 23.468 95.0733 23.468ZM95.0733 26.818C93.0187 26.818 91.232 27.287 89.7133 28.225C88.2393 29.163 87.1003 30.4137 86.2963 31.977C85.4923 33.4957 85.0903 35.193 85.0903 37.069C85.0903 39.8383 85.9837 42.1833 87.7703 44.104C89.6017 45.98 92.036 46.918 95.0733 46.918C98.1107 46.918 100.523 45.98 102.309 44.104C104.141 42.228 105.056 39.9277 105.056 37.203C105.056 35.2823 104.654 33.5403 103.85 31.977C103.046 30.4137 101.885 29.163 100.366 28.225C98.8923 27.287 97.128 26.818 95.0733 26.818Z" fill="url(#paint2_linear_21_12)"/>
<path d="M138.489 50C138.043 50 137.641 49.8437 137.283 49.531C136.971 49.1737 136.814 48.7717 136.814 48.325V45.511C135.519 46.8957 134.045 47.99 132.392 48.794C130.784 49.598 128.998 50 127.032 50C124.844 50 122.856 49.4863 121.069 48.459C119.327 47.4317 117.92 45.98 116.848 44.104C115.821 42.1833 115.307 39.95 115.307 37.404C115.307 34.724 115.866 32.3567 116.982 30.302C118.144 28.2473 119.707 26.6393 121.672 25.478C123.682 24.3167 125.938 23.736 128.439 23.736C130.047 23.736 131.521 23.9593 132.861 24.406C134.246 24.808 135.564 25.3887 136.814 26.148V14.088C136.814 13.5967 136.971 13.1947 137.283 12.882C137.641 12.5693 138.043 12.413 138.489 12.413C138.981 12.413 139.383 12.5693 139.695 12.882C140.008 13.1947 140.164 13.5967 140.164 14.088V48.325C140.164 48.7717 140.008 49.1737 139.695 49.531C139.383 49.8437 138.981 50 138.489 50ZM127.032 46.65C129.266 46.65 131.164 46.0693 132.727 44.908C134.335 43.7467 135.698 42.2503 136.814 40.419V30.168C135.564 29.1853 134.268 28.426 132.928 27.89C131.633 27.354 130.137 27.086 128.439 27.086C126.563 27.086 124.888 27.5327 123.414 28.426C121.94 29.3193 120.779 30.5477 119.93 32.111C119.082 33.6297 118.657 35.394 118.657 37.404C118.657 40.1287 119.439 42.362 121.002 44.104C122.61 45.8013 124.62 46.65 127.032 46.65Z" fill="url(#paint3_linear_21_12)"/>
<path d="M151.948 14.088C151.948 13.5967 152.105 13.1947 152.417 12.882C152.775 12.5693 153.177 12.413 153.623 12.413C154.115 12.413 154.517 12.5693 154.829 12.882C155.142 13.1947 155.298 13.5967 155.298 14.088V48.325C155.298 48.7717 155.142 49.1737 154.829 49.531C154.517 49.8437 154.115 50 153.623 50C153.177 50 152.775 49.8437 152.417 49.531C152.105 49.1737 151.948 48.7717 151.948 48.325V14.088Z" fill="url(#paint4_linear_21_12)"/>
<path d="M178.978 50C174.69 50 171.228 48.8833 168.593 46.65C166.002 44.4167 164.707 41.2677 164.707 37.203C164.707 34.4783 165.287 32.111 166.449 30.101C167.61 28.091 169.151 26.5277 171.072 25.411C173.037 24.2943 175.203 23.736 177.571 23.736C179.938 23.736 181.926 24.205 183.534 25.143C185.142 26.081 186.348 27.2423 187.152 28.627C188 30.0117 188.425 31.374 188.425 32.714C188.425 34.322 187.911 35.7067 186.884 36.868C185.901 38.0293 184.025 38.61 181.256 38.61H168.124C168.481 41.29 169.642 43.3 171.608 44.64C173.618 45.98 176.074 46.65 178.978 46.65C180.094 46.65 181.099 46.5607 181.993 46.382C182.931 46.2033 183.645 46.0247 184.137 45.846C184.628 45.6673 184.941 45.5557 185.075 45.511C185.253 45.4663 185.387 45.444 185.477 45.444C185.923 45.444 186.303 45.6227 186.616 45.98C186.973 46.2927 187.152 46.6723 187.152 47.119C187.152 47.8783 186.794 48.392 186.08 48.66C185.142 49.0173 184.047 49.33 182.797 49.598C181.546 49.866 180.273 50 178.978 50ZM177.571 27.086C175.203 27.086 173.149 27.8453 171.407 29.364C169.665 30.838 168.593 32.8033 168.191 35.26H181.323C183.869 35.26 185.142 34.4113 185.142 32.714C185.142 31.3293 184.449 30.0563 183.065 28.895C181.68 27.689 179.849 27.086 177.571 27.086Z" fill="url(#paint5_linear_21_12)"/>
<path d="M199.611 50C199.164 50 198.762 49.8437 198.405 49.531C198.092 49.1737 197.936 48.7717 197.936 48.325V25.411C197.936 24.9197 198.092 24.5177 198.405 24.205C198.762 23.8923 199.164 23.736 199.611 23.736C200.102 23.736 200.504 23.8923 200.817 24.205C201.13 24.5177 201.286 24.9197 201.286 25.411V29.364C203.028 27.5327 204.882 26.148 206.847 25.21C208.812 24.272 210.711 23.803 212.542 23.803C213.033 23.803 213.413 23.9593 213.681 24.272C213.994 24.54 214.15 24.8973 214.15 25.344C214.15 26.3713 213.659 26.952 212.676 27.086C210.085 27.3987 207.897 28.225 206.11 29.565C204.323 30.905 202.715 32.647 201.286 34.791V48.325C201.286 48.7717 201.13 49.1737 200.817 49.531C200.504 49.8437 200.102 50 199.611 50Z" fill="url(#paint6_linear_21_12)"/>
<path d="M236.508 27.622C236.062 27.488 235.28 27.3317 234.163 27.153C233.091 26.9743 231.908 26.885 230.612 26.885C228.424 26.885 226.726 27.2647 225.52 28.024C224.314 28.7833 223.711 29.7213 223.711 30.838C223.711 31.8207 224.203 32.6247 225.185 33.25C226.213 33.8307 227.888 34.2327 230.21 34.456L232.89 34.724C235.168 34.9473 236.955 35.461 238.25 36.265C239.546 37.069 240.461 38.0293 240.997 39.146C241.533 40.218 241.801 41.357 241.801 42.563C241.801 43.769 241.489 44.975 240.863 46.181C240.238 47.3423 239.144 48.325 237.58 49.129C236.062 49.8883 233.873 50.268 231.014 50.268C229.362 50.268 227.664 50.1117 225.922 49.799C224.18 49.4417 222.528 48.928 220.964 48.258C220.294 47.9453 219.959 47.4093 219.959 46.65C219.959 46.248 220.138 45.8907 220.495 45.578C220.853 45.2207 221.255 45.042 221.701 45.042C221.791 45.042 221.947 45.0867 222.17 45.176C222.394 45.2653 222.796 45.4217 223.376 45.645C224.225 45.9577 225.342 46.248 226.726 46.516C228.111 46.784 229.54 46.918 231.014 46.918C233.426 46.918 235.258 46.516 236.508 45.712C237.804 44.8633 238.451 43.8137 238.451 42.563C238.451 41.4017 238.005 40.419 237.111 39.615C236.218 38.7663 234.722 38.2527 232.622 38.074L229.942 37.806C227.307 37.538 225.297 37.0467 223.912 36.332C222.528 35.5727 221.59 34.7017 221.098 33.719C220.607 32.7363 220.361 31.7537 220.361 30.771C220.361 29.6543 220.652 28.56 221.232 27.488C221.858 26.3713 222.907 25.4333 224.381 24.674C225.9 23.9147 227.977 23.535 230.612 23.535C232.131 23.535 233.538 23.6467 234.833 23.87C236.173 24.0487 237.357 24.2943 238.384 24.607C238.742 24.6517 239.032 24.8527 239.255 25.21C239.479 25.5227 239.59 25.8577 239.59 26.215C239.59 26.7063 239.412 27.1083 239.054 27.421C238.742 27.7337 238.362 27.89 237.915 27.89C237.647 27.89 237.178 27.8007 236.508 27.622Z" fill="url(#paint7_linear_21_12)"/>
<path d="M253.137 43.099C254.031 43.099 254.768 43.4563 255.348 44.171C255.929 44.841 256.219 45.6897 256.219 46.717C256.219 47.9677 255.929 48.8833 255.348 49.464C254.812 50.0447 254.098 50.335 253.204 50.335C252.49 50.335 251.797 50.0447 251.127 49.464C250.457 48.8833 250.122 47.9677 250.122 46.717C250.122 45.645 250.39 44.774 250.926 44.104C251.462 43.434 252.199 43.099 253.137 43.099Z" fill="url(#paint8_linear_21_12)"/>
<path d="M268.32 10.001C269.079 10.001 269.727 10.3137 270.263 10.939C270.799 11.5197 271.067 12.3237 271.067 13.351C271.067 14.3783 270.799 15.16 270.263 15.696C269.727 16.232 269.102 16.5 268.387 16.5C267.583 16.5 266.891 16.232 266.31 15.696C265.774 15.1153 265.506 14.3337 265.506 13.351C265.506 12.3237 265.774 11.5197 266.31 10.939C266.846 10.3137 267.516 10.001 268.32 10.001ZM266.712 25.411C266.712 24.9197 266.868 24.5177 267.181 24.205C267.538 23.8923 267.94 23.736 268.387 23.736C268.878 23.736 269.28 23.8923 269.593 24.205C269.906 24.5177 270.062 24.9197 270.062 25.411V48.325C270.062 48.7717 269.906 49.1737 269.593 49.531C269.28 49.8437 268.878 50 268.387 50C267.94 50 267.538 49.8437 267.181 49.531C266.868 49.1737 266.712 48.7717 266.712 48.325V25.411Z" fill="url(#paint9_linear_21_12)"/>
<path d="M292.736 23.468C295.461 23.468 297.806 24.0933 299.771 25.344C301.781 26.55 303.322 28.2027 304.394 30.302C305.511 32.3567 306.069 34.657 306.069 37.203C306.069 39.6597 305.511 41.8707 304.394 43.836C303.322 45.8013 301.781 47.3647 299.771 48.526C297.806 49.6873 295.461 50.268 292.736 50.268C290.056 50.268 287.711 49.6873 285.701 48.526C283.691 47.3647 282.128 45.779 281.011 43.769C279.939 41.759 279.403 39.5257 279.403 37.069C279.403 34.5677 279.939 32.2897 281.011 30.235C282.083 28.1803 283.624 26.55 285.634 25.344C287.644 24.0933 290.012 23.468 292.736 23.468ZM292.736 26.818C290.682 26.818 288.895 27.287 287.376 28.225C285.902 29.163 284.763 30.4137 283.959 31.977C283.155 33.4957 282.753 35.193 282.753 37.069C282.753 39.8383 283.647 42.1833 285.433 44.104C287.265 45.98 289.699 46.918 292.736 46.918C295.774 46.918 298.186 45.98 299.972 44.104C301.804 42.228 302.719 39.9277 302.719 37.203C302.719 35.2823 302.317 33.5403 301.513 31.977C300.709 30.4137 299.548 29.163 298.029 28.225C296.555 27.287 294.791 26.818 292.736 26.818Z" fill="url(#paint10_linear_21_12)"/>
<path fill-rule="evenodd" clip-rule="evenodd" d="M268.32 12.001C268.116 12.001 267.995 12.0461 267.829 12.2406L267.805 12.2685L267.78 12.2956C267.677 12.4066 267.506 12.6711 267.506 13.351C267.506 13.8812 267.625 14.1419 267.733 14.2841C267.917 14.4323 268.11 14.5 268.387 14.5C268.537 14.5 268.663 14.468 268.849 14.2818C268.892 14.2386 269.067 14.0415 269.067 13.351C269.067 12.6711 268.896 12.4066 268.794 12.2956L268.769 12.2685L268.745 12.2406C268.552 12.0161 268.442 12.001 268.32 12.001ZM264.815 9.60996C265.718 8.57116 266.928 8.00101 268.32 8.00101C269.705 8.00101 270.881 8.60058 271.758 9.61046C272.709 10.6566 273.067 11.9885 273.067 13.351C273.067 14.7152 272.706 16.0814 271.677 17.1102C270.792 17.996 269.667 18.5 268.387 18.5C267.09 18.5 265.911 18.0492 264.954 17.1656L264.895 17.1113L264.841 17.0526C263.886 16.0181 263.506 14.7085 263.506 13.351C263.506 11.9882 263.865 10.6561 264.815 9.60996ZM135.034 49.5969C135.199 50.0548 135.452 50.4751 135.778 50.848L135.866 50.9484L135.966 51.0362C136.663 51.646 137.526 52 138.489 52C139.447 52 140.378 51.6763 141.11 50.9452L141.157 50.8981L141.2 50.848C141.81 50.1511 142.164 49.2883 142.164 48.325V14.088C142.164 13.1308 141.841 12.1988 141.11 11.4678C140.378 10.7367 139.447 10.413 138.489 10.413C137.526 10.413 136.663 10.767 135.966 11.3769L135.916 11.4207L135.869 11.4678C135.138 12.1989 134.814 13.1308 134.814 14.088V22.952C134.368 22.7826 133.916 22.6306 133.456 22.4962C131.897 21.9814 130.219 21.736 128.439 21.736C125.615 21.736 123.009 22.3956 120.672 23.7463L120.663 23.7512L120.655 23.7562C118.377 25.102 116.569 26.969 115.241 29.3179L115.233 29.3324L115.225 29.347C113.927 31.7351 113.307 34.4396 113.307 37.404C113.307 40.2234 113.878 42.791 115.085 45.0473L115.098 45.072L115.112 45.0963C116.344 47.2529 117.991 48.9656 120.053 50.1817L120.063 50.1873L120.072 50.1928C122.181 51.4054 124.516 52 127.032 52C129.275 52 131.369 51.5399 133.277 50.5879C133.884 50.2918 134.47 49.9613 135.034 49.5969ZM151.1 11.3769C151.797 10.767 152.66 10.413 153.623 10.413C154.581 10.413 155.513 10.7367 156.244 11.4678C156.975 12.1989 157.298 13.1309 157.298 14.088V48.325C157.298 49.2883 156.944 50.1511 156.335 50.848L156.291 50.8981L156.244 50.9452C155.513 51.6763 154.581 52 153.623 52C152.66 52 151.797 51.646 151.1 51.0362L151 50.9484L150.912 50.848C150.302 50.1511 149.948 49.2883 149.948 48.325V14.088C149.948 13.1309 150.272 12.1989 151.003 11.4678L151.05 11.4207L151.1 11.3769ZM9.71791 13.1189C10.4148 12.509 11.2776 12.155 12.2409 12.155H24.0329C27.3412 12.155 30.4397 13.0117 33.2919 14.7114C36.1825 16.4074 38.4978 18.7534 40.2263 21.7127C42.0396 24.7396 42.9169 28.2052 42.9169 32.044C42.9169 35.6861 42.1377 39.0449 40.5468 42.0797C39.0005 45.0703 36.794 47.478 33.9516 49.2748C31.0853 51.1154 27.7524 52 24.0329 52H12.2409C11.2776 52 10.4148 51.646 9.71791 51.0362L9.61757 50.9484L9.52976 50.848C8.91995 50.1511 8.56592 49.2883 8.56592 48.325V15.83C8.56592 14.8728 8.88963 13.9409 9.62071 13.2098L9.66779 13.1627L9.71791 13.1189ZM15.9159 19.505V44.65H24.0329C26.4778 44.65 28.4764 44.0828 30.114 43.0288C31.8665 41.8847 33.1842 40.3954 34.0958 38.5343L34.0994 38.5269L34.1031 38.5196C35.0708 36.5841 35.5669 34.4368 35.5669 32.044C35.5669 29.5367 35.013 27.3848 33.9544 25.5323C32.8633 23.6228 31.4446 22.1556 29.693 21.0894C27.9526 20.03 26.0792 19.505 24.0329 19.505H15.9159ZM53.4286 23.6373C55.7981 22.1668 58.5386 21.468 61.5733 21.468C64.603 21.468 67.3272 22.1647 69.6597 23.6425C71.9746 25.0368 73.7638 26.957 75.0007 29.3694C76.2824 31.7369 76.9063 34.3627 76.9063 37.203C76.9063 39.9689 76.2755 42.5202 74.979 44.8086C73.7262 47.099 71.9239 48.9184 69.617 50.253C67.2906 51.6253 64.5825 52.268 61.5733 52.268C58.597 52.268 55.8963 51.6204 53.5378 50.2577C51.2175 48.9171 49.3943 47.07 48.1 44.7403L48.0917 44.7253L48.0836 44.7102C46.8452 42.3881 46.2403 39.8275 46.2403 37.069C46.2403 34.2717 46.8425 31.6725 48.0752 29.3099C49.3173 26.9292 51.1129 25.0299 53.4286 23.6373ZM86.9286 23.6373C89.298 22.1669 92.0386 21.468 95.0733 21.468C98.103 21.468 100.827 22.1647 103.16 23.6425C105.475 25.0369 107.264 26.9572 108.501 29.3697C109.782 31.7371 110.406 34.3628 110.406 37.203C110.406 39.969 109.775 42.5205 108.479 44.809C107.226 47.0992 105.424 48.9186 103.117 50.2532C100.79 51.6254 98.0825 52.268 95.0733 52.268C92.097 52.268 89.3962 51.6204 87.0378 50.2577C84.7175 48.9171 82.8943 47.07 81.6 44.7403L81.5917 44.7253L81.5836 44.7102C80.3452 42.3881 79.7403 39.8275 79.7403 37.069C79.7403 34.2717 80.3425 31.6725 81.5752 29.3099C82.8173 26.9292 84.6129 25.0299 86.9286 23.6373ZM284.591 23.6374C286.961 22.1669 289.702 21.468 292.736 21.468C295.766 21.468 298.49 22.1648 300.823 23.6427C303.138 25.037 304.927 26.9571 306.164 29.3695C307.446 31.737 308.069 34.3627 308.069 37.203C308.069 39.9691 307.439 42.5205 306.142 44.809C304.889 47.0992 303.087 48.9183 300.78 50.2529C298.454 51.6253 295.746 52.268 292.736 52.268C289.76 52.268 287.059 51.6204 284.701 50.2577C282.381 48.9171 280.557 47.07 279.263 44.7403L279.255 44.7253L279.247 44.7102C278.008 42.3881 277.403 39.8275 277.403 37.069C277.403 34.2717 278.006 31.6725 279.238 29.3099C280.48 26.9292 282.276 25.0301 284.591 23.6374ZM223.487 22.8852C225.395 21.9312 227.821 21.535 230.612 21.535C232.213 21.535 233.723 21.6516 235.135 21.8926C236.489 22.0746 237.726 22.3258 238.837 22.6547C239.769 22.8328 240.466 23.4009 240.918 24.097C241.343 24.7112 241.59 25.43 241.59 26.215C241.59 27.2384 241.196 28.179 240.421 28.8817C239.736 29.5435 238.864 29.89 237.915 29.89C237.352 29.89 236.647 29.729 235.993 29.5545L235.963 29.5465L235.934 29.5377C235.628 29.4459 234.965 29.3067 233.847 29.1279L233.834 29.1258C232.889 28.9683 231.818 28.885 230.612 28.885C228.614 28.885 227.345 29.2386 226.586 29.7165C225.779 30.2247 225.711 30.5998 225.711 30.838C225.711 30.9967 225.728 31.2124 226.214 31.5336C226.875 31.8905 228.189 32.2525 230.402 32.4652L230.409 32.4659L233.085 32.7335L233.087 32.7337C235.529 32.9733 237.652 33.5397 239.305 34.5657C240.844 35.5211 242.057 36.7408 242.793 38.2657C243.464 39.6132 243.801 41.0538 243.801 42.563C243.801 44.1281 243.393 45.6476 242.639 47.1016L242.632 47.1155L242.624 47.1292C241.753 48.7475 240.3 49.9792 238.495 50.9076L238.485 50.9128L238.475 50.9179C236.55 51.8802 233.998 52.268 231.014 52.268C229.235 52.268 227.419 52.0997 225.569 51.7676L225.545 51.7632L225.52 51.7582C223.652 51.375 221.869 50.8219 220.176 50.0963L220.147 50.0838L220.118 50.0704C219.494 49.7789 218.92 49.3296 218.514 48.6815C218.112 48.0368 217.959 47.3284 217.959 46.65C217.959 45.5917 218.449 44.7319 219.128 44.1178C219.8 43.4651 220.677 43.042 221.701 43.042C222.025 43.042 222.299 43.1135 222.435 43.1525C222.602 43.2001 222.765 43.2598 222.913 43.3191C223.121 43.4021 223.507 43.5523 224.08 43.773C224.787 44.0323 225.784 44.2965 227.106 44.5524C228.36 44.7951 229.662 44.918 231.014 44.918C233.252 44.918 234.634 44.5364 235.42 44.0341C236.298 43.4568 236.451 42.9734 236.451 42.563C236.451 41.9907 236.262 41.5413 235.773 41.1016L235.753 41.0836L235.734 41.065C235.333 40.684 234.391 40.2318 232.453 40.0668L232.438 40.0656L229.74 39.7957C227.005 39.5176 224.706 38.9922 222.995 38.1092L222.973 38.0977L222.951 38.0856C221.359 37.2126 220.046 36.0873 219.309 34.6134C218.696 33.3862 218.361 32.0992 218.361 30.771C218.361 29.2918 218.749 27.8725 219.474 26.5354L219.48 26.5231L219.487 26.5108C220.354 24.9636 221.744 23.7826 223.465 22.8961L223.476 22.8905L223.487 22.8852ZM170.084 23.6721C172.365 22.3761 174.874 21.736 177.571 21.736C180.198 21.736 182.555 22.2567 184.541 23.4154C186.392 24.495 187.865 25.8819 188.869 27.6022C189.862 29.2284 190.425 30.9412 190.425 32.714C190.425 34.7831 189.75 36.6386 188.396 38.177C186.814 40.0305 184.155 40.61 181.256 40.61H170.728C171.188 41.6176 171.861 42.3899 172.726 42.9817C174.345 44.0581 176.393 44.65 178.978 44.65C179.991 44.65 180.861 44.5687 181.601 44.4208L181.61 44.419L181.619 44.4173C182.522 44.2452 183.113 44.0901 183.453 43.9664C183.936 43.7907 184.277 43.6687 184.442 43.6136L184.515 43.5894L184.59 43.5707C184.797 43.519 185.129 43.444 185.477 43.444C186.493 43.444 187.375 43.8631 188.031 44.5642C188.733 45.2211 189.152 46.1025 189.152 47.119C189.152 47.8185 188.983 48.5578 188.526 49.2159C188.07 49.8714 187.438 50.2857 186.787 50.5308C185.733 50.9319 184.539 51.2701 183.216 51.5536C181.826 51.8515 180.412 52 178.978 52C174.334 52 170.377 50.7839 167.3 48.1758L167.293 48.1703L167.287 48.1648C164.172 45.4793 162.707 41.729 162.707 37.203C162.707 34.1886 163.352 31.4638 164.717 29.1005C166.045 26.8025 167.831 24.982 170.067 23.682L170.075 23.677L170.084 23.6721ZM203.266 25.0017C203.185 24.1909 202.858 23.4171 202.231 22.7908C201.5 22.0597 200.568 21.736 199.611 21.736C198.648 21.736 197.785 22.09 197.088 22.6999L197.038 22.7437L196.991 22.7908C196.26 23.5218 195.936 24.4538 195.936 25.411V48.325C195.936 49.2883 196.29 50.1511 196.9 50.848L196.988 50.9484L197.088 51.0362C197.785 51.646 198.648 52 199.611 52C200.568 52 201.5 51.6763 202.231 50.9452L202.278 50.8981L202.322 50.848C202.932 50.1511 203.286 49.2883 203.286 48.325V35.4096C204.518 33.6562 205.863 32.2504 207.31 31.165C208.772 30.0687 210.614 29.3494 212.916 29.0716L212.931 29.0697L212.946 29.0677C213.775 28.9547 214.656 28.6125 215.308 27.8419C215.952 27.081 216.15 26.1642 216.15 25.344C216.15 24.4169 215.815 23.5275 215.096 22.8551C214.385 22.0984 213.449 21.803 212.542 21.803C210.362 21.803 208.17 22.3627 205.986 23.405C205.049 23.8522 204.142 24.3855 203.266 25.0017ZM265.864 22.6999C266.561 22.09 267.424 21.736 268.387 21.736C269.344 21.736 270.276 22.0597 271.007 22.7908C271.738 23.5218 272.062 24.4538 272.062 25.411V48.325C272.062 49.2884 271.708 50.1511 271.098 50.848L271.054 50.8981L271.007 50.9452C270.276 51.6763 269.344 52 268.387 52C267.424 52 266.561 51.646 265.864 51.0362L265.764 50.9484L265.676 50.848C265.066 50.1511 264.712 49.2883 264.712 48.325V25.411C264.712 24.4539 265.036 23.5219 265.767 22.7908L265.814 22.7437L265.864 22.6999ZM57.2756 29.9197C56.1085 30.6651 55.2156 31.6459 54.5749 32.8917L54.5695 32.9023L54.5639 32.9128C53.9262 34.1173 53.5903 35.4886 53.5903 37.069C53.5903 39.355 54.3072 41.1989 55.7182 42.724C57.1113 44.1419 58.9924 44.918 61.5733 44.918C64.1659 44.918 66.0172 44.1358 67.3611 42.7247L67.3696 42.7158L67.3782 42.7069C68.8292 41.2205 69.5563 39.4284 69.5563 37.203C69.5563 35.5705 69.2171 34.1465 68.5718 32.8917C67.9369 31.6572 67.0294 30.6765 65.8153 29.9266L65.8039 29.9195L65.7926 29.9123C64.6924 29.2122 63.3157 28.818 61.5733 28.818C59.8383 28.818 58.4309 29.2092 57.2756 29.9197ZM90.7757 29.9196C89.6085 30.665 88.7156 31.6459 88.0749 32.8917L88.0695 32.9023L88.0639 32.9128C87.4262 34.1173 87.0903 35.4886 87.0903 37.069C87.0903 39.3549 87.8072 41.1988 89.2181 42.7239C90.6112 44.1419 92.4923 44.918 95.0733 44.918C97.6659 44.918 99.5172 44.1358 100.861 42.7247L100.87 42.7158L100.878 42.7069C102.329 41.2205 103.056 39.4284 103.056 37.203C103.056 35.5705 102.717 34.1465 102.072 32.8917C101.437 31.6572 100.529 30.6765 99.3153 29.9266L99.3039 29.9195L99.2926 29.9123C98.1924 29.2122 96.8157 28.818 95.0733 28.818C93.3384 28.818 91.931 29.2091 90.7757 29.9196ZM288.439 29.9196C287.272 30.665 286.379 31.6459 285.738 32.8917L285.733 32.9023L285.727 32.9128C285.089 34.1173 284.753 35.4886 284.753 37.069C284.753 39.355 285.47 41.199 286.881 42.7242C288.275 44.142 290.156 44.918 292.736 44.918C295.329 44.918 297.18 44.1358 298.524 42.7247L298.533 42.7158L298.541 42.7069C299.992 41.2205 300.719 39.4284 300.719 37.203C300.719 35.5705 300.38 34.1465 299.735 32.8917C299.1 31.6572 298.193 30.6765 296.978 29.9266L296.967 29.9195L296.956 29.9123C295.856 29.2122 294.479 28.818 292.736 28.818C291.001 28.818 289.594 29.2091 288.439 29.9196ZM128.439 29.086C126.895 29.086 125.585 29.4491 124.451 30.1364C123.29 30.84 122.373 31.8029 121.688 33.0652L121.682 33.076L121.676 33.0866C121.019 34.2636 120.657 35.682 120.657 37.404C120.657 39.7099 121.303 41.435 122.473 42.7482C123.686 44.0197 125.16 44.65 127.032 44.65C128.902 44.65 130.365 44.1711 131.535 43.3025L131.545 43.2945L131.556 43.2867C132.799 42.3894 133.886 41.2477 134.814 39.8391V31.1757C133.947 30.5745 133.071 30.101 132.186 29.747L132.175 29.7426L132.164 29.738C131.156 29.3211 129.928 29.086 128.439 29.086ZM177.571 29.086C175.674 29.086 174.089 29.6788 172.721 30.8716L172.71 30.8812L172.699 30.8908C171.925 31.5454 171.313 32.327 170.869 33.26H181.323C182.437 33.26 182.922 33.0629 183.078 32.9594C183.1 32.9448 183.111 32.9346 183.116 32.9301L183.118 32.925C183.12 32.9189 183.123 32.9081 183.126 32.8917C183.134 32.8587 183.142 32.8015 183.142 32.714C183.142 32.09 182.859 31.333 181.78 30.4274L181.765 30.4154L181.751 30.4032C180.812 29.5854 179.486 29.086 177.571 29.086ZM253.137 45.099C252.742 45.099 252.606 45.2062 252.488 45.3534C252.301 45.5878 252.122 45.9832 252.122 46.717C252.122 47.6343 252.363 47.8881 252.437 47.9526C252.834 48.2968 253.079 48.335 253.204 48.335C253.62 48.335 253.773 48.2224 253.879 48.1074L253.906 48.0781L253.934 48.0498C253.983 48.0007 254.219 47.7097 254.219 46.717C254.219 46.09 254.053 45.7304 253.837 45.4809L253.816 45.4569L253.796 45.4322C253.582 45.1683 253.407 45.099 253.137 45.099ZM249.365 42.8546C250.319 41.6619 251.656 41.099 253.137 41.099C254.643 41.099 255.935 41.7353 256.88 42.8852C257.811 43.9712 258.219 45.2999 258.219 46.717C258.219 48.2126 257.881 49.7394 256.791 50.8494C255.828 51.8756 254.563 52.335 253.204 52.335C251.901 52.335 250.76 51.7926 249.817 50.9754C248.552 49.8786 248.122 48.301 248.122 46.717C248.122 45.3068 248.48 43.9602 249.365 42.8546Z" fill="url(#paint11_linear_21_12)"/>
<path d="M12.2409 50C11.7943 50 11.3923 49.8437 11.0349 49.531C10.7223 49.1737 10.5659 48.7717 10.5659 48.325V15.83C10.5659 15.3387 10.7223 14.9367 11.0349 14.624C11.3923 14.3113 11.7943 14.155 12.2409 14.155H24.0329C26.9809 14.155 29.7279 14.9143 32.2739 16.433C34.8646 17.9517 36.9416 20.051 38.5049 22.731C40.1129 25.411 40.9169 28.5153 40.9169 32.044C40.9169 35.394 40.2023 38.4313 38.7729 41.156C37.3883 43.836 35.4229 45.98 32.8769 47.588C30.3756 49.196 27.4276 50 24.0329 50H12.2409ZM13.9159 17.505V46.65H24.0329C26.8023 46.65 29.1919 46.0023 31.2019 44.707C33.2566 43.367 34.8199 41.6027 35.8919 39.414C37.0086 37.1807 37.5669 34.724 37.5669 32.044C37.5669 29.23 36.9416 26.7287 35.6909 24.54C34.4403 22.3513 32.7876 20.6317 30.7329 19.381C28.6783 18.1303 26.4449 17.505 24.0329 17.505H13.9159Z" stroke="white" stroke-width="16" mask="url(#path-1-outside-1_21_12)"/>
<path d="M61.5733 23.468C64.298 23.468 66.643 24.0933 68.6083 25.344C70.6183 26.55 72.1593 28.2027 73.2313 30.302C74.348 32.3567 74.9063 34.657 74.9063 37.203C74.9063 39.6597 74.348 41.8707 73.2313 43.836C72.1593 45.8013 70.6183 47.3647 68.6083 48.526C66.643 49.6873 64.298 50.268 61.5733 50.268C58.8933 50.268 56.5483 49.6873 54.5383 48.526C52.5283 47.3647 50.965 45.779 49.8483 43.769C48.7763 41.759 48.2403 39.5257 48.2403 37.069C48.2403 34.5677 48.7763 32.2897 49.8483 30.235C50.9203 28.1803 52.4613 26.55 54.4713 25.344C56.4813 24.0933 58.8487 23.468 61.5733 23.468ZM61.5733 26.818C59.5187 26.818 57.732 27.287 56.2133 28.225C54.7393 29.163 53.6003 30.4137 52.7963 31.977C51.9923 33.4957 51.5903 35.193 51.5903 37.069C51.5903 39.8383 52.4837 42.1833 54.2703 44.104C56.1017 45.98 58.536 46.918 61.5733 46.918C64.6107 46.918 67.0227 45.98 68.8093 44.104C70.6407 42.228 71.5563 39.9277 71.5563 37.203C71.5563 35.2823 71.1543 33.5403 70.3503 31.977C69.5463 30.4137 68.385 29.163 66.8663 28.225C65.3923 27.287 63.628 26.818 61.5733 26.818Z" stroke="white" stroke-width="16" mask="url(#path-1-outside-1_21_12)"/>
<path d="M95.0733 23.468C97.798 23.468 100.143 24.0933 102.108 25.344C104.118 26.55 105.659 28.2027 106.731 30.302C107.848 32.3567 108.406 34.657 108.406 37.203C108.406 39.6597 107.848 41.8707 106.731 43.836C105.659 45.8013 104.118 47.3647 102.108 48.526C100.143 49.6873 97.798 50.268 95.0733 50.268C92.3933 50.268 90.0483 49.6873 88.0383 48.526C86.0283 47.3647 84.465 45.779 83.3483 43.769C82.2763 41.759 81.7403 39.5257 81.7403 37.069C81.7403 34.5677 82.2763 32.2897 83.3483 30.235C84.4203 28.1803 85.9613 26.55 87.9713 25.344C89.9813 24.0933 92.3487 23.468 95.0733 23.468ZM95.0733 26.818C93.0187 26.818 91.232 27.287 89.7133 28.225C88.2393 29.163 87.1003 30.4137 86.2963 31.977C85.4923 33.4957 85.0903 35.193 85.0903 37.069C85.0903 39.8383 85.9837 42.1833 87.7703 44.104C89.6017 45.98 92.036 46.918 95.0733 46.918C98.1107 46.918 100.523 45.98 102.309 44.104C104.141 42.228 105.056 39.9277 105.056 37.203C105.056 35.2823 104.654 33.5403 103.85 31.977C103.046 30.4137 101.885 29.163 100.366 28.225C98.8923 27.287 97.128 26.818 95.0733 26.818Z" stroke="white" stroke-width="16" mask="url(#path-1-outside-1_21_12)"/>
<path d="M138.489 50C138.043 50 137.641 49.8437 137.283 49.531C136.971 49.1737 136.814 48.7717 136.814 48.325V45.511C135.519 46.8957 134.045 47.99 132.392 48.794C130.784 49.598 128.998 50 127.032 50C124.844 50 122.856 49.4863 121.069 48.459C119.327 47.4317 117.92 45.98 116.848 44.104C115.821 42.1833 115.307 39.95 115.307 37.404C115.307 34.724 115.866 32.3567 116.982 30.302C118.144 28.2473 119.707 26.6393 121.672 25.478C123.682 24.3167 125.938 23.736 128.439 23.736C130.047 23.736 131.521 23.9593 132.861 24.406C134.246 24.808 135.564 25.3887 136.814 26.148V14.088C136.814 13.5967 136.971 13.1947 137.283 12.882C137.641 12.5693 138.043 12.413 138.489 12.413C138.981 12.413 139.383 12.5693 139.695 12.882C140.008 13.1947 140.164 13.5967 140.164 14.088V48.325C140.164 48.7717 140.008 49.1737 139.695 49.531C139.383 49.8437 138.981 50 138.489 50ZM127.032 46.65C129.266 46.65 131.164 46.0693 132.727 44.908C134.335 43.7467 135.698 42.2503 136.814 40.419V30.168C135.564 29.1853 134.268 28.426 132.928 27.89C131.633 27.354 130.137 27.086 128.439 27.086C126.563 27.086 124.888 27.5327 123.414 28.426C121.94 29.3193 120.779 30.5477 119.93 32.111C119.082 33.6297 118.657 35.394 118.657 37.404C118.657 40.1287 119.439 42.362 121.002 44.104C122.61 45.8013 124.62 46.65 127.032 46.65Z" stroke="white" stroke-width="16" mask="url(#path-1-outside-1_21_12)"/>
<path d="M151.948 14.088C151.948 13.5967 152.105 13.1947 152.417 12.882C152.775 12.5693 153.177 12.413 153.623 12.413C154.115 12.413 154.517 12.5693 154.829 12.882C155.142 13.1947 155.298 13.5967 155.298 14.088V48.325C155.298 48.7717 155.142 49.1737 154.829 49.531C154.517 49.8437 154.115 50 153.623 50C153.177 50 152.775 49.8437 152.417 49.531C152.105 49.1737 151.948 48.7717 151.948 48.325V14.088Z" stroke="white" stroke-width="16" mask="url(#path-1-outside-1_21_12)"/>
<path d="M178.978 50C174.69 50 171.228 48.8833 168.593 46.65C166.002 44.4167 164.707 41.2677 164.707 37.203C164.707 34.4783 165.287 32.111 166.449 30.101C167.61 28.091 169.151 26.5277 171.072 25.411C173.037 24.2943 175.203 23.736 177.571 23.736C179.938 23.736 181.926 24.205 183.534 25.143C185.142 26.081 186.348 27.2423 187.152 28.627C188 30.0117 188.425 31.374 188.425 32.714C188.425 34.322 187.911 35.7067 186.884 36.868C185.901 38.0293 184.025 38.61 181.256 38.61H168.124C168.481 41.29 169.642 43.3 171.608 44.64C173.618 45.98 176.074 46.65 178.978 46.65C180.094 46.65 181.099 46.5607 181.993 46.382C182.931 46.2033 183.645 46.0247 184.137 45.846C184.628 45.6673 184.941 45.5557 185.075 45.511C185.253 45.4663 185.387 45.444 185.477 45.444C185.923 45.444 186.303 45.6227 186.616 45.98C186.973 46.2927 187.152 46.6723 187.152 47.119C187.152 47.8783 186.794 48.392 186.08 48.66C185.142 49.0173 184.047 49.33 182.797 49.598C181.546 49.866 180.273 50 178.978 50ZM177.571 27.086C175.203 27.086 173.149 27.8453 171.407 29.364C169.665 30.838 168.593 32.8033 168.191 35.26H181.323C183.869 35.26 185.142 34.4113 185.142 32.714C185.142 31.3293 184.449 30.0563 183.065 28.895C181.68 27.689 179.849 27.086 177.571 27.086Z" stroke="white" stroke-width="16" mask="url(#path-1-outside-1_21_12)"/>
<path d="M199.611 50C199.164 50 198.762 49.8437 198.405 49.531C198.092 49.1737 197.936 48.7717 197.936 48.325V25.411C197.936 24.9197 198.092 24.5177 198.405 24.205C198.762 23.8923 199.164 23.736 199.611 23.736C200.102 23.736 200.504 23.8923 200.817 24.205C201.13 24.5177 201.286 24.9197 201.286 25.411V29.364C203.028 27.5327 204.882 26.148 206.847 25.21C208.812 24.272 210.711 23.803 212.542 23.803C213.033 23.803 213.413 23.9593 213.681 24.272C213.994 24.54 214.15 24.8973 214.15 25.344C214.15 26.3713 213.659 26.952 212.676 27.086C210.085 27.3987 207.897 28.225 206.11 29.565C204.323 30.905 202.715 32.647 201.286 34.791V48.325C201.286 48.7717 201.13 49.1737 200.817 49.531C200.504 49.8437 200.102 50 199.611 50Z" stroke="white" stroke-width="16" mask="url(#path-1-outside-1_21_12)"/>
<path d="M236.508 27.622C236.062 27.488 235.28 27.3317 234.163 27.153C233.091 26.9743 231.908 26.885 230.612 26.885C228.424 26.885 226.726 27.2647 225.52 28.024C224.314 28.7833 223.711 29.7213 223.711 30.838C223.711 31.8207 224.203 32.6247 225.185 33.25C226.213 33.8307 227.888 34.2327 230.21 34.456L232.89 34.724C235.168 34.9473 236.955 35.461 238.25 36.265C239.546 37.069 240.461 38.0293 240.997 39.146C241.533 40.218 241.801 41.357 241.801 42.563C241.801 43.769 241.489 44.975 240.863 46.181C240.238 47.3423 239.144 48.325 237.58 49.129C236.062 49.8883 233.873 50.268 231.014 50.268C229.362 50.268 227.664 50.1117 225.922 49.799C224.18 49.4417 222.528 48.928 220.964 48.258C220.294 47.9453 219.959 47.4093 219.959 46.65C219.959 46.248 220.138 45.8907 220.495 45.578C220.853 45.2207 221.255 45.042 221.701 45.042C221.791 45.042 221.947 45.0867 222.17 45.176C222.394 45.2653 222.796 45.4217 223.376 45.645C224.225 45.9577 225.342 46.248 226.726 46.516C228.111 46.784 229.54 46.918 231.014 46.918C233.426 46.918 235.258 46.516 236.508 45.712C237.804 44.8633 238.451 43.8137 238.451 42.563C238.451 41.4017 238.005 40.419 237.111 39.615C236.218 38.7663 234.722 38.2527 232.622 38.074L229.942 37.806C227.307 37.538 225.297 37.0467 223.912 36.332C222.528 35.5727 221.59 34.7017 221.098 33.719C220.607 32.7363 220.361 31.7537 220.361 30.771C220.361 29.6543 220.652 28.56 221.232 27.488C221.858 26.3713 222.907 25.4333 224.381 24.674C225.9 23.9147 227.977 23.535 230.612 23.535C232.131 23.535 233.538 23.6467 234.833 23.87C236.173 24.0487 237.357 24.2943 238.384 24.607C238.742 24.6517 239.032 24.8527 239.255 25.21C239.479 25.5227 239.59 25.8577 239.59 26.215C239.59 26.7063 239.412 27.1083 239.054 27.421C238.742 27.7337 238.362 27.89 237.915 27.89C237.647 27.89 237.178 27.8007 236.508 27.622Z" stroke="white" stroke-width="16" mask="url(#path-1-outside-1_21_12)"/>
<path d="M253.137 43.099C254.031 43.099 254.768 43.4563 255.348 44.171C255.929 44.841 256.219 45.6897 256.219 46.717C256.219 47.9677 255.929 48.8833 255.348 49.464C254.812 50.0447 254.098 50.335 253.204 50.335C252.49 50.335 251.797 50.0447 251.127 49.464C250.457 48.8833 250.122 47.9677 250.122 46.717C250.122 45.645 250.39 44.774 250.926 44.104C251.462 43.434 252.199 43.099 253.137 43.099Z" stroke="white" stroke-width="16" mask="url(#path-1-outside-1_21_12)"/>
<path d="M268.32 10.001C269.079 10.001 269.727 10.3137 270.263 10.939C270.799 11.5197 271.067 12.3237 271.067 13.351C271.067 14.3783 270.799 15.16 270.263 15.696C269.727 16.232 269.102 16.5 268.387 16.5C267.583 16.5 266.891 16.232 266.31 15.696C265.774 15.1153 265.506 14.3337 265.506 13.351C265.506 12.3237 265.774 11.5197 266.31 10.939C266.846 10.3137 267.516 10.001 268.32 10.001ZM266.712 25.411C266.712 24.9197 266.868 24.5177 267.181 24.205C267.538 23.8923 267.94 23.736 268.387 23.736C268.878 23.736 269.28 23.8923 269.593 24.205C269.906 24.5177 270.062 24.9197 270.062 25.411V48.325C270.062 48.7717 269.906 49.1737 269.593 49.531C269.28 49.8437 268.878 50 268.387 50C267.94 50 267.538 49.8437 267.181 49.531C266.868 49.1737 266.712 48.7717 266.712 48.325V25.411Z" stroke="white" stroke-width="16" mask="url(#path-1-outside-1_21_12)"/>
<path d="M292.736 23.468C295.461 23.468 297.806 24.0933 299.771 25.344C301.781 26.55 303.322 28.2027 304.394 30.302C305.511 32.3567 306.069 34.657 306.069 37.203C306.069 39.6597 305.511 41.8707 304.394 43.836C303.322 45.8013 301.781 47.3647 299.771 48.526C297.806 49.6873 295.461 50.268 292.736 50.268C290.056 50.268 287.711 49.6873 285.701 48.526C283.691 47.3647 282.128 45.779 281.011 43.769C279.939 41.759 279.403 39.5257 279.403 37.069C279.403 34.5677 279.939 32.2897 281.011 30.235C282.083 28.1803 283.624 26.55 285.634 25.344C287.644 24.0933 290.012 23.468 292.736 23.468ZM292.736 26.818C290.682 26.818 288.895 27.287 287.376 28.225C285.902 29.163 284.763 30.4137 283.959 31.977C283.155 33.4957 282.753 35.193 282.753 37.069C282.753 39.8383 283.647 42.1833 285.433 44.104C287.265 45.98 289.699 46.918 292.736 46.918C295.774 46.918 298.186 45.98 299.972 44.104C301.804 42.228 302.719 39.9277 302.719 37.203C302.719 35.2823 302.317 33.5403 301.513 31.977C300.709 30.4137 299.548 29.163 298.029 28.225C296.555 27.287 294.791 26.818 292.736 26.818Z" stroke="white" stroke-width="16" mask="url(#path-1-outside-1_21_12)"/>
<path fill-rule="evenodd" clip-rule="evenodd" d="M268.32 12.001C268.116 12.001 267.995 12.0461 267.829 12.2406L267.805 12.2685L267.78 12.2956C267.677 12.4066 267.506 12.6711 267.506 13.351C267.506 13.8812 267.625 14.1419 267.733 14.2841C267.917 14.4323 268.11 14.5 268.387 14.5C268.537 14.5 268.663 14.468 268.849 14.2818C268.892 14.2386 269.067 14.0415 269.067 13.351C269.067 12.6711 268.896 12.4066 268.794 12.2956L268.769 12.2685L268.745 12.2406C268.552 12.0161 268.442 12.001 268.32 12.001ZM264.815 9.60996C265.718 8.57116 266.928 8.00101 268.32 8.00101C269.705 8.00101 270.881 8.60058 271.758 9.61046C272.709 10.6566 273.067 11.9885 273.067 13.351C273.067 14.7152 272.706 16.0814 271.677 17.1102C270.792 17.996 269.667 18.5 268.387 18.5C267.09 18.5 265.911 18.0492 264.954 17.1656L264.895 17.1113L264.841 17.0526C263.886 16.0181 263.506 14.7085 263.506 13.351C263.506 11.9882 263.865 10.6561 264.815 9.60996ZM135.034 49.5969C135.199 50.0548 135.452 50.4751 135.778 50.848L135.866 50.9484L135.966 51.0362C136.663 51.646 137.526 52 138.489 52C139.447 52 140.378 51.6763 141.11 50.9452L141.157 50.8981L141.2 50.848C141.81 50.1511 142.164 49.2883 142.164 48.325V14.088C142.164 13.1308 141.841 12.1988 141.11 11.4678C140.378 10.7367 139.447 10.413 138.489 10.413C137.526 10.413 136.663 10.767 135.966 11.3769L135.916 11.4207L135.869 11.4678C135.138 12.1989 134.814 13.1308 134.814 14.088V22.952C134.368 22.7826 133.916 22.6306 133.456 22.4962C131.897 21.9814 130.219 21.736 128.439 21.736C125.615 21.736 123.009 22.3956 120.672 23.7463L120.663 23.7512L120.655 23.7562C118.377 25.102 116.569 26.969 115.241 29.3179L115.233 29.3324L115.225 29.347C113.927 31.7351 113.307 34.4396 113.307 37.404C113.307 40.2234 113.878 42.791 115.085 45.0473L115.098 45.072L115.112 45.0963C116.344 47.2529 117.991 48.9656 120.053 50.1817L120.063 50.1873L120.072 50.1928C122.181 51.4054 124.516 52 127.032 52C129.275 52 131.369 51.5399 133.277 50.5879C133.884 50.2918 134.47 49.9613 135.034 49.5969ZM151.1 11.3769C151.797 10.767 152.66 10.413 153.623 10.413C154.581 10.413 155.513 10.7367 156.244 11.4678C156.975 12.1989 157.298 13.1309 157.298 14.088V48.325C157.298 49.2883 156.944 50.1511 156.335 50.848L156.291 50.8981L156.244 50.9452C155.513 51.6763 154.581 52 153.623 52C152.66 52 151.797 51.646 151.1 51.0362L151 50.9484L150.912 50.848C150.302 50.1511 149.948 49.2883 149.948 48.325V14.088C149.948 13.1309 150.272 12.1989 151.003 11.4678L151.05 11.4207L151.1 11.3769ZM9.71791 13.1189C10.4148 12.509 11.2776 12.155 12.2409 12.155H24.0329C27.3412 12.155 30.4397 13.0117 33.2919 14.7114C36.1825 16.4074 38.4978 18.7534 40.2263 21.7127C42.0396 24.7396 42.9169 28.2052 42.9169 32.044C42.9169 35.6861 42.1377 39.0449 40.5468 42.0797C39.0005 45.0703 36.794 47.478 33.9516 49.2748C31.0853 51.1154 27.7524 52 24.0329 52H12.2409C11.2776 52 10.4148 51.646 9.71791 51.0362L9.61757 50.9484L9.52976 50.848C8.91995 50.1511 8.56592 49.2883 8.56592 48.325V15.83C8.56592 14.8728 8.88963 13.9409 9.62071 13.2098L9.66779 13.1627L9.71791 13.1189ZM15.9159 19.505V44.65H24.0329C26.4778 44.65 28.4764 44.0828 30.114 43.0288C31.8665 41.8847 33.1842 40.3954 34.0958 38.5343L34.0994 38.5269L34.1031 38.5196C35.0708 36.5841 35.5669 34.4368 35.5669 32.044C35.5669 29.5367 35.013 27.3848 33.9544 25.5323C32.8633 23.6228 31.4446 22.1556 29.693 21.0894C27.9526 20.03 26.0792 19.505 24.0329 19.505H15.9159ZM53.4286 23.6373C55.7981 22.1668 58.5386 21.468 61.5733 21.468C64.603 21.468 67.3272 22.1647 69.6597 23.6425C71.9746 25.0368 73.7638 26.957 75.0007 29.3694C76.2824 31.7369 76.9063 34.3627 76.9063 37.203C76.9063 39.9689 76.2755 42.5202 74.979 44.8086C73.7262 47.099 71.9239 48.9184 69.617 50.253C67.2906 51.6253 64.5825 52.268 61.5733 52.268C58.597 52.268 55.8963 51.6204 53.5378 50.2577C51.2175 48.9171 49.3943 47.07 48.1 44.7403L48.0917 44.7253L48.0836 44.7102C46.8452 42.3881 46.2403 39.8275 46.2403 37.069C46.2403 34.2717 46.8425 31.6725 48.0752 29.3099C49.3173 26.9292 51.1129 25.0299 53.4286 23.6373ZM86.9286 23.6373C89.298 22.1669 92.0386 21.468 95.0733 21.468C98.103 21.468 100.827 22.1647 103.16 23.6425C105.475 25.0369 107.264 26.9572 108.501 29.3697C109.782 31.7371 110.406 34.3628 110.406 37.203C110.406 39.969 109.775 42.5205 108.479 44.809C107.226 47.0992 105.424 48.9186 103.117 50.2532C100.79 51.6254 98.0825 52.268 95.0733 52.268C92.097 52.268 89.3962 51.6204 87.0378 50.2577C84.7175 48.9171 82.8943 47.07 81.6 44.7403L81.5917 44.7253L81.5836 44.7102C80.3452 42.3881 79.7403 39.8275 79.7403 37.069C79.7403 34.2717 80.3425 31.6725 81.5752 29.3099C82.8173 26.9292 84.6129 25.0299 86.9286 23.6373ZM284.591 23.6374C286.961 22.1669 289.702 21.468 292.736 21.468C295.766 21.468 298.49 22.1648 300.823 23.6427C303.138 25.037 304.927 26.9571 306.164 29.3695C307.446 31.737 308.069 34.3627 308.069 37.203C308.069 39.9691 307.439 42.5205 306.142 44.809C304.889 47.0992 303.087 48.9183 300.78 50.2529C298.454 51.6253 295.746 52.268 292.736 52.268C289.76 52.268 287.059 51.6204 284.701 50.2577C282.381 48.9171 280.557 47.07 279.263 44.7403L279.255 44.7253L279.247 44.7102C278.008 42.3881 277.403 39.8275 277.403 37.069C277.403 34.2717 278.006 31.6725 279.238 29.3099C280.48 26.9292 282.276 25.0301 284.591 23.6374ZM223.487 22.8852C225.395 21.9312 227.821 21.535 230.612 21.535C232.213 21.535 233.723 21.6516 235.135 21.8926C236.489 22.0746 237.726 22.3258 238.837 22.6547C239.769 22.8328 240.466 23.4009 240.918 24.097C241.343 24.7112 241.59 25.43 241.59 26.215C241.59 27.2384 241.196 28.179 240.421 28.8817C239.736 29.5435 238.864 29.89 237.915 29.89C237.352 29.89 236.647 29.729 235.993 29.5545L235.963 29.5465L235.934 29.5377C235.628 29.4459 234.965 29.3067 233.847 29.1279L233.834 29.1258C232.889 28.9683 231.818 28.885 230.612 28.885C228.614 28.885 227.345 29.2386 226.586 29.7165C225.779 30.2247 225.711 30.5998 225.711 30.838C225.711 30.9967 225.728 31.2124 226.214 31.5336C226.875 31.8905 228.189 32.2525 230.402 32.4652L230.409 32.4659L233.085 32.7335L233.087 32.7337C235.529 32.9733 237.652 33.5397 239.305 34.5657C240.844 35.5211 242.057 36.7408 242.793 38.2657C243.464 39.6132 243.801 41.0538 243.801 42.563C243.801 44.1281 243.393 45.6476 242.639 47.1016L242.632 47.1155L242.624 47.1292C241.753 48.7475 240.3 49.9792 238.495 50.9076L238.485 50.9128L238.475 50.9179C236.55 51.8802 233.998 52.268 231.014 52.268C229.235 52.268 227.419 52.0997 225.569 51.7676L225.545 51.7632L225.52 51.7582C223.652 51.375 221.869 50.8219 220.176 50.0963L220.147 50.0838L220.118 50.0704C219.494 49.7789 218.92 49.3296 218.514 48.6815C218.112 48.0368 217.959 47.3284 217.959 46.65C217.959 45.5917 218.449 44.7319 219.128 44.1178C219.8 43.4651 220.677 43.042 221.701 43.042C222.025 43.042 222.299 43.1135 222.435 43.1525C222.602 43.2001 222.765 43.2598 222.913 43.3191C223.121 43.4021 223.507 43.5523 224.08 43.773C224.787 44.0323 225.784 44.2965 227.106 44.5524C228.36 44.7951 229.662 44.918 231.014 44.918C233.252 44.918 234.634 44.5364 235.42 44.0341C236.298 43.4568 236.451 42.9734 236.451 42.563C236.451 41.9907 236.262 41.5413 235.773 41.1016L235.753 41.0836L235.734 41.065C235.333 40.684 234.391 40.2318 232.453 40.0668L232.438 40.0656L229.74 39.7957C227.005 39.5176 224.706 38.9922 222.995 38.1092L222.973 38.0977L222.951 38.0856C221.359 37.2126 220.046 36.0873 219.309 34.6134C218.696 33.3862 218.361 32.0992 218.361 30.771C218.361 29.2918 218.749 27.8725 219.474 26.5354L219.48 26.5231L219.487 26.5108C220.354 24.9636 221.744 23.7826 223.465 22.8961L223.476 22.8905L223.487 22.8852ZM170.084 23.6721C172.365 22.3761 174.874 21.736 177.571 21.736C180.198 21.736 182.555 22.2567 184.541 23.4154C186.392 24.495 187.865 25.8819 188.869 27.6022C189.862 29.2284 190.425 30.9412 190.425 32.714C190.425 34.7831 189.75 36.6386 188.396 38.177C186.814 40.0305 184.155 40.61 181.256 40.61H170.728C171.188 41.6176 171.861 42.3899 172.726 42.9817C174.345 44.0581 176.393 44.65 178.978 44.65C179.991 44.65 180.861 44.5687 181.601 44.4208L181.61 44.419L181.619 44.4173C182.522 44.2452 183.113 44.0901 183.453 43.9664C183.936 43.7907 184.277 43.6687 184.442 43.6136L184.515 43.5894L184.59 43.5707C184.797 43.519 185.129 43.444 185.477 43.444C186.493 43.444 187.375 43.8631 188.031 44.5642C188.733 45.2211 189.152 46.1025 189.152 47.119C189.152 47.8185 188.983 48.5578 188.526 49.2159C188.07 49.8714 187.438 50.2857 186.787 50.5308C185.733 50.9319 184.539 51.2701 183.216 51.5536C181.826 51.8515 180.412 52 178.978 52C174.334 52 170.377 50.7839 167.3 48.1758L167.293 48.1703L167.287 48.1648C164.172 45.4793 162.707 41.729 162.707 37.203C162.707 34.1886 163.352 31.4638 164.717 29.1005C166.045 26.8025 167.831 24.982 170.067 23.682L170.075 23.677L170.084 23.6721ZM203.266 25.0017C203.185 24.1909 202.858 23.4171 202.231 22.7908C201.5 22.0597 200.568 21.736 199.611 21.736C198.648 21.736 197.785 22.09 197.088 22.6999L197.038 22.7437L196.991 22.7908C196.26 23.5218 195.936 24.4538 195.936 25.411V48.325C195.936 49.2883 196.29 50.1511 196.9 50.848L196.988 50.9484L197.088 51.0362C197.785 51.646 198.648 52 199.611 52C200.568 52 201.5 51.6763 202.231 50.9452L202.278 50.8981L202.322 50.848C202.932 50.1511 203.286 49.2883 203.286 48.325V35.4096C204.518 33.6562 205.863 32.2504 207.31 31.165C208.772 30.0687 210.614 29.3494 212.916 29.0716L212.931 29.0697L212.946 29.0677C213.775 28.9547 214.656 28.6125 215.308 27.8419C215.952 27.081 216.15 26.1642 216.15 25.344C216.15 24.4169 215.815 23.5275 215.096 22.8551C214.385 22.0984 213.449 21.803 212.542 21.803C210.362 21.803 208.17 22.3627 205.986 23.405C205.049 23.8522 204.142 24.3855 203.266 25.0017ZM265.864 22.6999C266.561 22.09 267.424 21.736 268.387 21.736C269.344 21.736 270.276 22.0597 271.007 22.7908C271.738 23.5218 272.062 24.4538 272.062 25.411V48.325C272.062 49.2884 271.708 50.1511 271.098 50.848L271.054 50.8981L271.007 50.9452C270.276 51.6763 269.344 52 268.387 52C267.424 52 266.561 51.646 265.864 51.0362L265.764 50.9484L265.676 50.848C265.066 50.1511 264.712 49.2883 264.712 48.325V25.411C264.712 24.4539 265.036 23.5219 265.767 22.7908L265.814 22.7437L265.864 22.6999ZM57.2756 29.9197C56.1085 30.6651 55.2156 31.6459 54.5749 32.8917L54.5695 32.9023L54.5639 32.9128C53.9262 34.1173 53.5903 35.4886 53.5903 37.069C53.5903 39.355 54.3072 41.1989 55.7182 42.724C57.1113 44.1419 58.9924 44.918 61.5733 44.918C64.1659 44.918 66.0172 44.1358 67.3611 42.7247L67.3696 42.7158L67.3782 42.7069C68.8292 41.2205 69.5563 39.4284 69.5563 37.203C69.5563 35.5705 69.2171 34.1465 68.5718 32.8917C67.9369 31.6572 67.0294 30.6765 65.8153 29.9266L65.8039 29.9195L65.7926 29.9123C64.6924 29.2122 63.3157 28.818 61.5733 28.818C59.8383 28.818 58.4309 29.2092 57.2756 29.9197ZM90.7757 29.9196C89.6085 30.665 88.7156 31.6459 88.0749 32.8917L88.0695 32.9023L88.0639 32.9128C87.4262 34.1173 87.0903 35.4886 87.0903 37.069C87.0903 39.3549 87.8072 41.1988 89.2181 42.7239C90.6112 44.1419 92.4923 44.918 95.0733 44.918C97.6659 44.918 99.5172 44.1358 100.861 42.7247L100.87 42.7158L100.878 42.7069C102.329 41.2205 103.056 39.4284 103.056 37.203C103.056 35.5705 102.717 34.1465 102.072 32.8917C101.437 31.6572 100.529 30.6765 99.3153 29.9266L99.3039 29.9195L99.2926 29.9123C98.1924 29.2122 96.8157 28.818 95.0733 28.818C93.3384 28.818 91.931 29.2091 90.7757 29.9196ZM288.439 29.9196C287.272 30.665 286.379 31.6459 285.738 32.8917L285.733 32.9023L285.727 32.9128C285.089 34.1173 284.753 35.4886 284.753 37.069C284.753 39.355 285.47 41.199 286.881 42.7242C288.275 44.142 290.156 44.918 292.736 44.918C295.329 44.918 297.18 44.1358 298.524 42.7247L298.533 42.7158L298.541 42.7069C299.992 41.2205 300.719 39.4284 300.719 37.203C300.719 35.5705 300.38 34.1465 299.735 32.8917C299.1 31.6572 298.193 30.6765 296.978 29.9266L296.967 29.9195L296.956 29.9123C295.856 29.2122 294.479 28.818 292.736 28.818C291.001 28.818 289.594 29.2091 288.439 29.9196ZM128.439 29.086C126.895 29.086 125.585 29.4491 124.451 30.1364C123.29 30.84 122.373 31.8029 121.688 33.0652L121.682 33.076L121.676 33.0866C121.019 34.2636 120.657 35.682 120.657 37.404C120.657 39.7099 121.303 41.435 122.473 42.7482C123.686 44.0197 125.16 44.65 127.032 44.65C128.902 44.65 130.365 44.1711 131.535 43.3025L131.545 43.2945L131.556 43.2867C132.799 42.3894 133.886 41.2477 134.814 39.8391V31.1757C133.947 30.5745 133.071 30.101 132.186 29.747L132.175 29.7426L132.164 29.738C131.156 29.3211 129.928 29.086 128.439 29.086ZM177.571 29.086C175.674 29.086 174.089 29.6788 172.721 30.8716L172.71 30.8812L172.699 30.8908C171.925 31.5454 171.313 32.327 170.869 33.26H181.323C182.437 33.26 182.922 33.0629 183.078 32.9594C183.1 32.9448 183.111 32.9346 183.116 32.9301L183.118 32.925C183.12 32.9189 183.123 32.9081 183.126 32.8917C183.134 32.8587 183.142 32.8015 183.142 32.714C183.142 32.09 182.859 31.333 181.78 30.4274L181.765 30.4154L181.751 30.4032C180.812 29.5854 179.486 29.086 177.571 29.086ZM253.137 45.099C252.742 45.099 252.606 45.2062 252.488 45.3534C252.301 45.5878 252.122 45.9832 252.122 46.717C252.122 47.6343 252.363 47.8881 252.437 47.9526C252.834 48.2968 253.079 48.335 253.204 48.335C253.62 48.335 253.773 48.2224 253.879 48.1074L253.906 48.0781L253.934 48.0498C253.983 48.0007 254.219 47.7097 254.219 46.717C254.219 46.09 254.053 45.7304 253.837 45.4809L253.816 45.4569L253.796 45.4322C253.582 45.1683 253.407 45.099 253.137 45.099ZM249.365 42.8546C250.319 41.6619 251.656 41.099 253.137 41.099C254.643 41.099 255.935 41.7353 256.88 42.8852C257.811 43.9712 258.219 45.2999 258.219 46.717C258.219 48.2126 257.881 49.7394 256.791 50.8494C255.828 51.8756 254.563 52.335 253.204 52.335C251.901 52.335 250.76 51.7926 249.817 50.9754C248.552 49.8786 248.122 48.301 248.122 46.717C248.122 45.3068 248.48 43.9602 249.365 42.8546Z" stroke="white" stroke-width="16" mask="url(#path-1-outside-1_21_12)"/>
<defs>
<linearGradient id="paint0_linear_21_12" x1="158.328" y1="-10.2935" x2="158.328" y2="67.3863" gradientUnits="userSpaceOnUse">
<stop offset="0.40625" stop-color="#FFD500"/>
<stop offset="0.786458" stop-color="#00CAFF"/>
</linearGradient>
<linearGradient id="paint1_linear_21_12" x1="158.328" y1="-10.2935" x2="158.328" y2="67.3863" gradientUnits="userSpaceOnUse">
<stop offset="0.40625" stop-color="#FFD500"/>
<stop offset="0.786458" stop-color="#00CAFF"/>
</linearGradient>
<linearGradient id="paint2_linear_21_12" x1="158.328" y1="-10.2935" x2="158.328" y2="67.3863" gradientUnits="userSpaceOnUse">
<stop offset="0.40625" stop-color="#FFD500"/>
<stop offset="0.786458" stop-color="#00CAFF"/>
</linearGradient>
<linearGradient id="paint3_linear_21_12" x1="158.328" y1="-10.2935" x2="158.328" y2="67.3863" gradientUnits="userSpaceOnUse">
<stop offset="0.40625" stop-color="#FFD500"/>
<stop offset="0.786458" stop-color="#00CAFF"/>
</linearGradient>
<linearGradient id="paint4_linear_21_12" x1="158.328" y1="-10.2935" x2="158.328" y2="67.3863" gradientUnits="userSpaceOnUse">
<stop offset="0.40625" stop-color="#FFD500"/>
<stop offset="0.786458" stop-color="#00CAFF"/>
</linearGradient>
<linearGradient id="paint5_linear_21_12" x1="158.328" y1="-10.2935" x2="158.328" y2="67.3863" gradientUnits="userSpaceOnUse">
<stop offset="0.40625" stop-color="#FFD500"/>
<stop offset="0.786458" stop-color="#00CAFF"/>
</linearGradient>
<linearGradient id="paint6_linear_21_12" x1="158.328" y1="-10.2935" x2="158.328" y2="67.3863" gradientUnits="userSpaceOnUse">
<stop offset="0.40625" stop-color="#FFD500"/>
<stop offset="0.786458" stop-color="#00CAFF"/>
</linearGradient>
<linearGradient id="paint7_linear_21_12" x1="158.328" y1="-10.2935" x2="158.328" y2="67.3863" gradientUnits="userSpaceOnUse">
<stop offset="0.40625" stop-color="#FFD500"/>
<stop offset="0.786458" stop-color="#00CAFF"/>
</linearGradient>
<linearGradient id="paint8_linear_21_12" x1="158.328" y1="-10.2935" x2="158.328" y2="67.3863" gradientUnits="userSpaceOnUse">
<stop offset="0.40625" stop-color="#FFD500"/>
<stop offset="0.786458" stop-color="#00CAFF"/>
</linearGradient>
<linearGradient id="paint9_linear_21_12" x1="158.328" y1="-10.2935" x2="158.328" y2="67.3863" gradientUnits="userSpaceOnUse">
<stop offset="0.40625" stop-color="#FFD500"/>
<stop offset="0.786458" stop-color="#00CAFF"/>
</linearGradient>
<linearGradient id="paint10_linear_21_12" x1="158.328" y1="-10.2935" x2="158.328" y2="67.3863" gradientUnits="userSpaceOnUse">
<stop offset="0.40625" stop-color="#FFD500"/>
<stop offset="0.786458" stop-color="#00CAFF"/>
</linearGradient>
<linearGradient id="paint11_linear_21_12" x1="158.328" y1="-10.2935" x2="158.328" y2="67.3863" gradientUnits="userSpaceOnUse">
<stop offset="0.40625" stop-color="#FFD500"/>
<stop offset="0.786458" stop-color="#00CAFF"/>
</linearGradient>
</defs>
</svg>
